<?xml version="1.0" encoding="utf-8" standalone="no"?>
<!DOCTYPE svg PUBLIC "-//W3C//DTD SVG 1.1//EN"
  "http://www.w3.org/Graphics/SVG/1.1/DTD/svg11.dtd">
<svg xmlns:xlink="http://www.w3.org/1999/xlink" width="504pt" height="360pt" viewBox="0 0 504 360" xmlns="http://www.w3.org/2000/svg" version="1.1">
 <metadata>
  <rdf:RDF xmlns:dc="http://purl.org/dc/elements/1.1/" xmlns:cc="http://creativecommons.org/ns#" xmlns:rdf="http://www.w3.org/1999/02/22-rdf-syntax-ns#">
   <cc:Work>
    <dc:type rdf:resource="http://purl.org/dc/dcmitype/StillImage"/>
    <dc:date>2026-04-19T21:15:09.650127</dc:date>
    <dc:format>image/svg+xml</dc:format>
    <dc:creator>
     <cc:Agent>
      <dc:title>Matplotlib v3.10.8, https://matplotlib.org/</dc:title>
     </cc:Agent>
    </dc:creator>
   </cc:Work>
  </rdf:RDF>
 </metadata>
 <defs>
  <style type="text/css">*{stroke-linejoin: round; stroke-linecap: butt}</style>
 </defs>
 <g id="figure_1">
  <g id="patch_1">
   <path d="M 0 360 
L 504 360 
L 504 0 
L 0 0 
z
" style="fill: #ffffff"/>
  </g>
  <g id="axes_1">
   <g id="patch_2">
    <path d="M 79.5 290.22 
L 484.56 290.22 
L 484.56 19.44 
L 79.5 19.44 
z
" style="fill: #ffffff"/>
   </g>
   <g id="patch_3">
    <path d="M 79.5 290.22 
L 86.251007 290.22 
L 86.251007 272.765778 
L 79.5 272.765778 
z
" clip-path="url(#pf2f96ffc6f)" style="fill: #4682b4; opacity: 0.5"/>
   </g>
   <g id="patch_4">
    <path d="M 86.251007 290.22 
L 93.001997 290.22 
L 93.001997 269.343332 
L 86.251007 269.343332 
z
" clip-path="url(#pf2f96ffc6f)" style="fill: #4682b4; opacity: 0.5"/>
   </g>
   <g id="patch_5">
    <path d="M 93.001997 290.22 
L 99.753004 290.22 
L 99.753004 269.343382 
L 93.001997 269.343382 
z
" clip-path="url(#pf2f96ffc6f)" style="fill: #4682b4; opacity: 0.5"/>
   </g>
   <g id="patch_6">
    <path d="M 99.753004 290.22 
L 106.503995 290.22 
L 106.503995 264.209725 
L 99.753004 264.209725 
z
" clip-path="url(#pf2f96ffc6f)" style="fill: #4682b4; opacity: 0.5"/>
   </g>
   <g id="patch_7">
    <path d="M 106.503995 290.22 
L 113.255001 290.22 
L 113.255001 264.380907 
L 106.503995 264.380907 
z
" clip-path="url(#pf2f96ffc6f)" style="fill: #4682b4; opacity: 0.5"/>
   </g>
   <g id="patch_8">
    <path d="M 113.255001 290.22 
L 120.005992 290.22 
L 120.005992 259.418358 
L 113.255001 259.418358 
z
" clip-path="url(#pf2f96ffc6f)" style="fill: #4682b4; opacity: 0.5"/>
   </g>
   <g id="patch_9">
    <path d="M 120.005992 290.22 
L 126.756999 290.22 
L 126.756999 255.824915 
L 120.005992 255.824915 
z
" clip-path="url(#pf2f96ffc6f)" style="fill: #4682b4; opacity: 0.5"/>
   </g>
   <g id="patch_10">
    <path d="M 126.756999 290.22 
L 133.508005 290.22 
L 133.508005 246.926685 
L 126.756999 246.926685 
z
" clip-path="url(#pf2f96ffc6f)" style="fill: #4682b4; opacity: 0.5"/>
   </g>
   <g id="patch_11">
    <path d="M 133.508005 290.22 
L 140.258996 290.22 
L 140.258996 246.07098 
L 133.508005 246.07098 
z
" clip-path="url(#pf2f96ffc6f)" style="fill: #4682b4; opacity: 0.5"/>
   </g>
   <g id="patch_12">
    <path d="M 140.258996 290.22 
L 147.010003 290.22 
L 147.010003 246.755565 
L 140.258996 246.755565 
z
" clip-path="url(#pf2f96ffc6f)" style="fill: #4682b4; opacity: 0.5"/>
   </g>
   <g id="patch_13">
    <path d="M 147.010003 290.22 
L 153.760993 290.22 
L 153.760993 235.290406 
L 147.010003 235.290406 
z
" clip-path="url(#pf2f96ffc6f)" style="fill: #4682b4; opacity: 0.5"/>
   </g>
   <g id="patch_14">
    <path d="M 153.760993 290.22 
L 160.512 290.22 
L 160.512 231.012541 
L 153.760993 231.012541 
z
" clip-path="url(#pf2f96ffc6f)" style="fill: #4682b4; opacity: 0.5"/>
   </g>
   <g id="patch_15">
    <path d="M 160.512 290.22 
L 167.263007 290.22 
L 167.263007 233.408219 
L 160.512 233.408219 
z
" clip-path="url(#pf2f96ffc6f)" style="fill: #4682b4; opacity: 0.5"/>
   </g>
   <g id="patch_16">
    <path d="M 167.263007 290.22 
L 174.013997 290.22 
L 174.013997 227.589995 
L 167.263007 227.589995 
z
" clip-path="url(#pf2f96ffc6f)" style="fill: #4682b4; opacity: 0.5"/>
   </g>
   <g id="patch_17">
    <path d="M 174.013997 290.22 
L 180.765004 290.22 
L 180.765004 221.429831 
L 174.013997 221.429831 
z
" clip-path="url(#pf2f96ffc6f)" style="fill: #4682b4; opacity: 0.5"/>
   </g>
   <g id="patch_18">
    <path d="M 180.765004 290.22 
L 187.516003 290.22 
L 187.516003 214.242708 
L 180.765004 214.242708 
z
" clip-path="url(#pf2f96ffc6f)" style="fill: #4682b4; opacity: 0.5"/>
   </g>
   <g id="patch_19">
    <path d="M 187.516003 290.22 
L 194.267001 290.22 
L 194.267001 212.018147 
L 187.516003 212.018147 
z
" clip-path="url(#pf2f96ffc6f)" style="fill: #4682b4; opacity: 0.5"/>
   </g>
   <g id="patch_20">
    <path d="M 194.267001 290.22 
L 201.018 290.22 
L 201.018 203.804386 
L 194.267001 203.804386 
z
" clip-path="url(#pf2f96ffc6f)" style="fill: #4682b4; opacity: 0.5"/>
   </g>
   <g id="patch_21">
    <path d="M 201.018 290.22 
L 207.768999 290.22 
L 207.768999 199.013025 
L 201.018 199.013025 
z
" clip-path="url(#pf2f96ffc6f)" style="fill: #4682b4; opacity: 0.5"/>
   </g>
   <g id="patch_22">
    <path d="M 207.768999 290.22 
L 214.519997 290.22 
L 214.519997 198.157425 
L 207.768999 198.157425 
z
" clip-path="url(#pf2f96ffc6f)" style="fill: #4682b4; opacity: 0.5"/>
   </g>
   <g id="patch_23">
    <path d="M 214.519997 290.22 
L 221.270996 290.22 
L 221.270996 183.098863 
L 214.519997 183.098863 
z
" clip-path="url(#pf2f96ffc6f)" style="fill: #4682b4; opacity: 0.5"/>
   </g>
   <g id="patch_24">
    <path d="M 221.270996 290.22 
L 228.022003 290.22 
L 228.022003 181.216672 
L 221.270996 181.216672 
z
" clip-path="url(#pf2f96ffc6f)" style="fill: #4682b4; opacity: 0.5"/>
   </g>
   <g id="patch_25">
    <path d="M 228.022003 290.22 
L 234.773001 290.22 
L 234.773001 163.420059 
L 228.022003 163.420059 
z
" clip-path="url(#pf2f96ffc6f)" style="fill: #4682b4; opacity: 0.5"/>
   </g>
   <g id="patch_26">
    <path d="M 234.773001 290.22 
L 241.524 290.22 
L 241.524 163.248939 
L 234.773001 163.248939 
z
" clip-path="url(#pf2f96ffc6f)" style="fill: #4682b4; opacity: 0.5"/>
   </g>
   <g id="patch_27">
    <path d="M 241.524 290.22 
L 248.274999 290.22 
L 248.274999 159.484299 
L 241.524 159.484299 
z
" clip-path="url(#pf2f96ffc6f)" style="fill: #4682b4; opacity: 0.5"/>
   </g>
   <g id="patch_28">
    <path d="M 248.274999 290.22 
L 255.026001 290.22 
L 255.026001 155.035259 
L 248.274999 155.035259 
z
" clip-path="url(#pf2f96ffc6f)" style="fill: #4682b4; opacity: 0.5"/>
   </g>
   <g id="patch_29">
    <path d="M 255.026001 290.22 
L 261.777 290.22 
L 261.777 152.468378 
L 255.026001 152.468378 
z
" clip-path="url(#pf2f96ffc6f)" style="fill: #4682b4; opacity: 0.5"/>
   </g>
   <g id="patch_30">
    <path d="M 261.777 290.22 
L 268.527999 290.22 
L 268.527999 155.035178 
L 261.777 155.035178 
z
" clip-path="url(#pf2f96ffc6f)" style="fill: #4682b4; opacity: 0.5"/>
   </g>
   <g id="patch_31">
    <path d="M 268.527999 290.22 
L 275.279001 290.22 
L 275.279001 139.292226 
L 268.527999 139.292226 
z
" clip-path="url(#pf2f96ffc6f)" style="fill: #4682b4; opacity: 0.5"/>
   </g>
   <g id="patch_32">
    <path d="M 275.279001 290.22 
L 282.03 290.22 
L 282.03 147.848137 
L 275.279001 147.848137 
z
" clip-path="url(#pf2f96ffc6f)" style="fill: #4682b4; opacity: 0.5"/>
   </g>
   <g id="patch_33">
    <path d="M 282.03 290.22 
L 288.781001 290.22 
L 288.781001 135.869781 
L 282.03 135.869781 
z
" clip-path="url(#pf2f96ffc6f)" style="fill: #4682b4; opacity: 0.5"/>
   </g>
   <g id="patch_34">
    <path d="M 288.781001 290.22 
L 295.531999 290.22 
L 295.531999 127.655974 
L 288.781001 127.655974 
z
" clip-path="url(#pf2f96ffc6f)" style="fill: #4682b4; opacity: 0.5"/>
   </g>
   <g id="patch_35">
    <path d="M 295.531999 290.22 
L 302.283 290.22 
L 302.283 136.554261 
L 295.531999 136.554261 
z
" clip-path="url(#pf2f96ffc6f)" style="fill: #4682b4; opacity: 0.5"/>
   </g>
   <g id="patch_36">
    <path d="M 302.283 290.22 
L 309.034 290.22 
L 309.034 133.131838 
L 302.283 133.131838 
z
" clip-path="url(#pf2f96ffc6f)" style="fill: #4682b4; opacity: 0.5"/>
   </g>
   <g id="patch_37">
    <path d="M 309.034 290.22 
L 315.785 290.22 
L 315.785 138.778809 
L 309.034 138.778809 
z
" clip-path="url(#pf2f96ffc6f)" style="fill: #4682b4; opacity: 0.5"/>
   </g>
   <g id="patch_38">
    <path d="M 315.785 290.22 
L 322.536 290.22 
L 322.536 146.479209 
L 315.785 146.479209 
z
" clip-path="url(#pf2f96ffc6f)" style="fill: #4682b4; opacity: 0.5"/>
   </g>
   <g id="patch_39">
    <path d="M 322.536 290.22 
L 329.287 290.22 
L 329.287 135.014158 
L 322.536 135.014158 
z
" clip-path="url(#pf2f96ffc6f)" style="fill: #4682b4; opacity: 0.5"/>
   </g>
   <g id="patch_40">
    <path d="M 329.287 290.22 
L 336.037999 290.22 
L 336.037999 144.939118 
L 329.287 144.939118 
z
" clip-path="url(#pf2f96ffc6f)" style="fill: #4682b4; opacity: 0.5"/>
   </g>
   <g id="patch_41">
    <path d="M 336.037999 290.22 
L 342.789 290.22 
L 342.789 146.13698 
L 336.037999 146.13698 
z
" clip-path="url(#pf2f96ffc6f)" style="fill: #4682b4; opacity: 0.5"/>
   </g>
   <g id="patch_42">
    <path d="M 342.789 290.22 
L 349.540001 290.22 
L 349.540001 148.361539 
L 342.789 148.361539 
z
" clip-path="url(#pf2f96ffc6f)" style="fill: #4682b4; opacity: 0.5"/>
   </g>
   <g id="patch_43">
    <path d="M 349.540001 290.22 
L 356.291001 290.22 
L 356.291001 159.313218 
L 349.540001 159.313218 
z
" clip-path="url(#pf2f96ffc6f)" style="fill: #4682b4; opacity: 0.5"/>
   </g>
   <g id="patch_44">
    <path d="M 356.291001 290.22 
L 363.042 290.22 
L 363.042 171.291581 
L 356.291001 171.291581 
z
" clip-path="url(#pf2f96ffc6f)" style="fill: #4682b4; opacity: 0.5"/>
   </g>
   <g id="patch_45">
    <path d="M 363.042 290.22 
L 369.792999 290.22 
L 369.792999 165.64462 
L 363.042 165.64462 
z
" clip-path="url(#pf2f96ffc6f)" style="fill: #4682b4; opacity: 0.5"/>
   </g>
   <g id="patch_46">
    <path d="M 369.792999 290.22 
L 376.544001 290.22 
L 376.544001 177.794209 
L 369.792999 177.794209 
z
" clip-path="url(#pf2f96ffc6f)" style="fill: #4682b4; opacity: 0.5"/>
   </g>
   <g id="patch_47">
    <path d="M 376.544001 290.22 
L 383.295 290.22 
L 383.295 186.179023 
L 376.544001 186.179023 
z
" clip-path="url(#pf2f96ffc6f)" style="fill: #4682b4; opacity: 0.5"/>
   </g>
   <g id="patch_48">
    <path d="M 383.295 290.22 
L 390.046003 290.22 
L 390.046003 197.13076 
L 383.295 197.13076 
z
" clip-path="url(#pf2f96ffc6f)" style="fill: #4682b4; opacity: 0.5"/>
   </g>
   <g id="patch_49">
    <path d="M 390.046003 290.22 
L 396.797001 290.22 
L 396.797001 195.932865 
L 390.046003 195.932865 
z
" clip-path="url(#pf2f96ffc6f)" style="fill: #4682b4; opacity: 0.5"/>
   </g>
   <g id="patch_50">
    <path d="M 396.797001 290.22 
L 403.548 290.22 
L 403.548 210.649187 
L 396.797001 210.649187 
z
" clip-path="url(#pf2f96ffc6f)" style="fill: #4682b4; opacity: 0.5"/>
   </g>
   <g id="patch_51">
    <path d="M 403.548 290.22 
L 410.298999 290.22 
L 410.298999 219.205188 
L 403.548 219.205188 
z
" clip-path="url(#pf2f96ffc6f)" style="fill: #4682b4; opacity: 0.5"/>
   </g>
   <g id="patch_52">
    <path d="M 410.298999 290.22 
L 417.049997 290.22 
L 417.049997 223.996549 
L 410.298999 223.996549 
z
" clip-path="url(#pf2f96ffc6f)" style="fill: #4682b4; opacity: 0.5"/>
   </g>
   <g id="patch_53">
    <path d="M 417.049997 290.22 
L 423.801004 290.22 
L 423.801004 224.509988 
L 417.049997 224.509988 
z
" clip-path="url(#pf2f96ffc6f)" style="fill: #4682b4; opacity: 0.5"/>
   </g>
   <g id="patch_54">
    <path d="M 423.801004 290.22 
L 430.552003 290.22 
L 430.552003 237.686151 
L 423.801004 237.686151 
z
" clip-path="url(#pf2f96ffc6f)" style="fill: #4682b4; opacity: 0.5"/>
   </g>
   <g id="patch_55">
    <path d="M 430.552003 290.22 
L 437.303001 290.22 
L 437.303001 248.637833 
L 430.552003 248.637833 
z
" clip-path="url(#pf2f96ffc6f)" style="fill: #4682b4; opacity: 0.5"/>
   </g>
   <g id="patch_56">
    <path d="M 437.303001 290.22 
L 444.054 290.22 
L 444.054 247.097753 
L 437.303001 247.097753 
z
" clip-path="url(#pf2f96ffc6f)" style="fill: #4682b4; opacity: 0.5"/>
   </g>
   <g id="patch_57">
    <path d="M 444.054 290.22 
L 450.804999 290.22 
L 450.804999 254.798154 
L 444.054 254.798154 
z
" clip-path="url(#pf2f96ffc6f)" style="fill: #4682b4; opacity: 0.5"/>
   </g>
   <g id="patch_58">
    <path d="M 450.804999 290.22 
L 457.556005 290.22 
L 457.556005 257.536114 
L 450.804999 257.536114 
z
" clip-path="url(#pf2f96ffc6f)" style="fill: #4682b4; opacity: 0.5"/>
   </g>
   <g id="patch_59">
    <path d="M 457.556005 290.22 
L 464.306996 290.22 
L 464.306996 258.049396 
L 457.556005 258.049396 
z
" clip-path="url(#pf2f96ffc6f)" style="fill: #4682b4; opacity: 0.5"/>
   </g>
   <g id="patch_60">
    <path d="M 464.306996 290.22 
L 471.058003 290.22 
L 471.058003 268.487782 
L 464.306996 268.487782 
z
" clip-path="url(#pf2f96ffc6f)" style="fill: #4682b4; opacity: 0.5"/>
   </g>
   <g id="patch_61">
    <path d="M 471.058003 290.22 
L 477.808993 290.22 
L 477.808993 267.632129 
L 471.058003 267.632129 
z
" clip-path="url(#pf2f96ffc6f)" style="fill: #4682b4; opacity: 0.5"/>
   </g>
   <g id="patch_62">
    <path d="M 477.808993 290.22 
L 484.56 290.22 
L 484.56 273.279137 
L 477.808993 273.279137 
z
" clip-path="url(#pf2f96ffc6f)" style="fill: #4682b4; opacity: 0.5"/>
   </g>
   <g id="patch_63">
    <path d="M 79.5 290.22 
L 86.251007 290.22 
L 86.251007 287.59746 
L 79.5 287.59746 
z
" clip-path="url(#pf2f96ffc6f)" style="fill: #ff8c00; opacity: 0.5"/>
   </g>
   <g id="patch_64">
    <path d="M 86.251007 290.22 
L 93.001997 290.22 
L 93.001997 285.466634 
L 86.251007 285.466634 
z
" clip-path="url(#pf2f96ffc6f)" style="fill: #ff8c00; opacity: 0.5"/>
   </g>
   <g id="patch_65">
    <path d="M 93.001997 290.22 
L 99.753004 290.22 
L 99.753004 285.302737 
L 93.001997 285.302737 
z
" clip-path="url(#pf2f96ffc6f)" style="fill: #ff8c00; opacity: 0.5"/>
   </g>
   <g id="patch_66">
    <path d="M 99.753004 290.22 
L 106.503995 290.22 
L 106.503995 284.31927 
L 99.753004 284.31927 
z
" clip-path="url(#pf2f96ffc6f)" style="fill: #ff8c00; opacity: 0.5"/>
   </g>
   <g id="patch_67">
    <path d="M 106.503995 290.22 
L 113.255001 290.22 
L 113.255001 281.696744 
L 106.503995 281.696744 
z
" clip-path="url(#pf2f96ffc6f)" style="fill: #ff8c00; opacity: 0.5"/>
   </g>
   <g id="patch_68">
    <path d="M 113.255001 290.22 
L 120.005992 290.22 
L 120.005992 280.54936 
L 113.255001 280.54936 
z
" clip-path="url(#pf2f96ffc6f)" style="fill: #ff8c00; opacity: 0.5"/>
   </g>
   <g id="patch_69">
    <path d="M 120.005992 290.22 
L 126.756999 290.22 
L 126.756999 280.713292 
L 120.005992 280.713292 
z
" clip-path="url(#pf2f96ffc6f)" style="fill: #ff8c00; opacity: 0.5"/>
   </g>
   <g id="patch_70">
    <path d="M 126.756999 290.22 
L 133.508005 290.22 
L 133.508005 278.418569 
L 126.756999 278.418569 
z
" clip-path="url(#pf2f96ffc6f)" style="fill: #ff8c00; opacity: 0.5"/>
   </g>
   <g id="patch_71">
    <path d="M 133.508005 290.22 
L 140.258996 290.22 
L 140.258996 269.731355 
L 133.508005 269.731355 
z
" clip-path="url(#pf2f96ffc6f)" style="fill: #ff8c00; opacity: 0.5"/>
   </g>
   <g id="patch_72">
    <path d="M 140.258996 290.22 
L 147.010003 290.22 
L 147.010003 270.550948 
L 140.258996 270.550948 
z
" clip-path="url(#pf2f96ffc6f)" style="fill: #ff8c00; opacity: 0.5"/>
   </g>
   <g id="patch_73">
    <path d="M 147.010003 290.22 
L 153.760993 290.22 
L 153.760993 267.108809 
L 147.010003 267.108809 
z
" clip-path="url(#pf2f96ffc6f)" style="fill: #ff8c00; opacity: 0.5"/>
   </g>
   <g id="patch_74">
    <path d="M 153.760993 290.22 
L 160.512 290.22 
L 160.512 261.699875 
L 153.760993 261.699875 
z
" clip-path="url(#pf2f96ffc6f)" style="fill: #ff8c00; opacity: 0.5"/>
   </g>
   <g id="patch_75">
    <path d="M 160.512 290.22 
L 167.263007 290.22 
L 167.263007 257.438247 
L 160.512 257.438247 
z
" clip-path="url(#pf2f96ffc6f)" style="fill: #ff8c00; opacity: 0.5"/>
   </g>
   <g id="patch_76">
    <path d="M 167.263007 290.22 
L 174.013997 290.22 
L 174.013997 254.815622 
L 167.263007 254.815622 
z
" clip-path="url(#pf2f96ffc6f)" style="fill: #ff8c00; opacity: 0.5"/>
   </g>
   <g id="patch_77">
    <path d="M 174.013997 290.22 
L 180.765004 290.22 
L 180.765004 246.620269 
L 174.013997 246.620269 
z
" clip-path="url(#pf2f96ffc6f)" style="fill: #ff8c00; opacity: 0.5"/>
   </g>
   <g id="patch_78">
    <path d="M 180.765004 290.22 
L 187.516003 290.22 
L 187.516003 233.5075 
L 180.765004 233.5075 
z
" clip-path="url(#pf2f96ffc6f)" style="fill: #ff8c00; opacity: 0.5"/>
   </g>
   <g id="patch_79">
    <path d="M 187.516003 290.22 
L 194.267001 290.22 
L 194.267001 231.86841 
L 187.516003 231.86841 
z
" clip-path="url(#pf2f96ffc6f)" style="fill: #ff8c00; opacity: 0.5"/>
   </g>
   <g id="patch_80">
    <path d="M 194.267001 290.22 
L 201.018 290.22 
L 201.018 222.36169 
L 194.267001 222.36169 
z
" clip-path="url(#pf2f96ffc6f)" style="fill: #ff8c00; opacity: 0.5"/>
   </g>
   <g id="patch_81">
    <path d="M 201.018 290.22 
L 207.768999 290.22 
L 207.768999 211.37979 
L 201.018 211.37979 
z
" clip-path="url(#pf2f96ffc6f)" style="fill: #ff8c00; opacity: 0.5"/>
   </g>
   <g id="patch_82">
    <path d="M 207.768999 290.22 
L 214.519997 290.22 
L 214.519997 207.282066 
L 207.768999 207.282066 
z
" clip-path="url(#pf2f96ffc6f)" style="fill: #ff8c00; opacity: 0.5"/>
   </g>
   <g id="patch_83">
    <path d="M 214.519997 290.22 
L 221.270996 290.22 
L 221.270996 188.924262 
L 214.519997 188.924262 
z
" clip-path="url(#pf2f96ffc6f)" style="fill: #ff8c00; opacity: 0.5"/>
   </g>
   <g id="patch_84">
    <path d="M 221.270996 290.22 
L 228.022003 290.22 
L 228.022003 185.154482 
L 221.270996 185.154482 
z
" clip-path="url(#pf2f96ffc6f)" style="fill: #ff8c00; opacity: 0.5"/>
   </g>
   <g id="patch_85">
    <path d="M 228.022003 290.22 
L 234.773001 290.22 
L 234.773001 175.483728 
L 228.022003 175.483728 
z
" clip-path="url(#pf2f96ffc6f)" style="fill: #ff8c00; opacity: 0.5"/>
   </g>
   <g id="patch_86">
    <path d="M 234.773001 290.22 
L 241.524 290.22 
L 241.524 170.894277 
L 234.773001 170.894277 
z
" clip-path="url(#pf2f96ffc6f)" style="fill: #ff8c00; opacity: 0.5"/>
   </g>
   <g id="patch_87">
    <path d="M 241.524 290.22 
L 248.274999 290.22 
L 248.274999 150.569566 
L 241.524 150.569566 
z
" clip-path="url(#pf2f96ffc6f)" style="fill: #ff8c00; opacity: 0.5"/>
   </g>
   <g id="patch_88">
    <path d="M 248.274999 290.22 
L 255.026001 290.22 
L 255.026001 137.620849 
L 248.274999 137.620849 
z
" clip-path="url(#pf2f96ffc6f)" style="fill: #ff8c00; opacity: 0.5"/>
   </g>
   <g id="patch_89">
    <path d="M 255.026001 290.22 
L 261.777 290.22 
L 261.777 125.983222 
L 255.026001 125.983222 
z
" clip-path="url(#pf2f96ffc6f)" style="fill: #ff8c00; opacity: 0.5"/>
   </g>
   <g id="patch_90">
    <path d="M 261.777 290.22 
L 268.527999 290.22 
L 268.527999 123.360678 
L 261.777 123.360678 
z
" clip-path="url(#pf2f96ffc6f)" style="fill: #ff8c00; opacity: 0.5"/>
   </g>
   <g id="patch_91">
    <path d="M 268.527999 290.22 
L 275.279001 290.22 
L 275.279001 112.051066 
L 268.527999 112.051066 
z
" clip-path="url(#pf2f96ffc6f)" style="fill: #ff8c00; opacity: 0.5"/>
   </g>
   <g id="patch_92">
    <path d="M 275.279001 290.22 
L 282.03 290.22 
L 282.03 107.789327 
L 275.279001 107.789327 
z
" clip-path="url(#pf2f96ffc6f)" style="fill: #ff8c00; opacity: 0.5"/>
   </g>
   <g id="patch_93">
    <path d="M 282.03 290.22 
L 288.781001 290.22 
L 288.781001 113.854011 
L 282.03 113.854011 
z
" clip-path="url(#pf2f96ffc6f)" style="fill: #ff8c00; opacity: 0.5"/>
   </g>
   <g id="patch_94">
    <path d="M 288.781001 290.22 
L 295.531999 290.22 
L 295.531999 91.070613 
L 288.781001 91.070613 
z
" clip-path="url(#pf2f96ffc6f)" style="fill: #ff8c00; opacity: 0.5"/>
   </g>
   <g id="patch_95">
    <path d="M 295.531999 290.22 
L 302.283 290.22 
L 302.283 99.757845 
L 295.531999 99.757845 
z
" clip-path="url(#pf2f96ffc6f)" style="fill: #ff8c00; opacity: 0.5"/>
   </g>
   <g id="patch_96">
    <path d="M 302.283 290.22 
L 309.034 290.22 
L 309.034 93.03755 
L 302.283 93.03755 
z
" clip-path="url(#pf2f96ffc6f)" style="fill: #ff8c00; opacity: 0.5"/>
   </g>
   <g id="patch_97">
    <path d="M 309.034 290.22 
L 315.785 290.22 
L 315.785 94.184927 
L 309.034 94.184927 
z
" clip-path="url(#pf2f96ffc6f)" style="fill: #ff8c00; opacity: 0.5"/>
   </g>
   <g id="patch_98">
    <path d="M 315.785 290.22 
L 322.536 290.22 
L 322.536 94.184927 
L 315.785 94.184927 
z
" clip-path="url(#pf2f96ffc6f)" style="fill: #ff8c00; opacity: 0.5"/>
   </g>
   <g id="patch_99">
    <path d="M 322.536 290.22 
L 329.287 290.22 
L 329.287 99.921725 
L 322.536 99.921725 
z
" clip-path="url(#pf2f96ffc6f)" style="fill: #ff8c00; opacity: 0.5"/>
   </g>
   <g id="patch_100">
    <path d="M 329.287 290.22 
L 336.037999 290.22 
L 336.037999 113.853985 
L 329.287 113.853985 
z
" clip-path="url(#pf2f96ffc6f)" style="fill: #ff8c00; opacity: 0.5"/>
   </g>
   <g id="patch_101">
    <path d="M 336.037999 290.22 
L 342.789 290.22 
L 342.789 113.198376 
L 336.037999 113.198376 
z
" clip-path="url(#pf2f96ffc6f)" style="fill: #ff8c00; opacity: 0.5"/>
   </g>
   <g id="patch_102">
    <path d="M 342.789 290.22 
L 349.540001 290.22 
L 349.540001 119.263005 
L 342.789 119.263005 
z
" clip-path="url(#pf2f96ffc6f)" style="fill: #ff8c00; opacity: 0.5"/>
   </g>
   <g id="patch_103">
    <path d="M 349.540001 290.22 
L 356.291001 290.22 
L 356.291001 129.753176 
L 349.540001 129.753176 
z
" clip-path="url(#pf2f96ffc6f)" style="fill: #ff8c00; opacity: 0.5"/>
   </g>
   <g id="patch_104">
    <path d="M 356.291001 290.22 
L 363.042 290.22 
L 363.042 147.947022 
L 356.291001 147.947022 
z
" clip-path="url(#pf2f96ffc6f)" style="fill: #ff8c00; opacity: 0.5"/>
   </g>
   <g id="patch_105">
    <path d="M 363.042 290.22 
L 369.792999 290.22 
L 369.792999 161.551466 
L 363.042 161.551466 
z
" clip-path="url(#pf2f96ffc6f)" style="fill: #ff8c00; opacity: 0.5"/>
   </g>
   <g id="patch_106">
    <path d="M 369.792999 290.22 
L 376.544001 290.22 
L 376.544001 169.09135 
L 369.792999 169.09135 
z
" clip-path="url(#pf2f96ffc6f)" style="fill: #ff8c00; opacity: 0.5"/>
   </g>
   <g id="patch_107">
    <path d="M 376.544001 290.22 
L 383.295 290.22 
L 383.295 177.614544 
L 376.544001 177.614544 
z
" clip-path="url(#pf2f96ffc6f)" style="fill: #ff8c00; opacity: 0.5"/>
   </g>
   <g id="patch_108">
    <path d="M 383.295 290.22 
L 390.046003 290.22 
L 390.046003 193.022044 
L 383.295 193.022044 
z
" clip-path="url(#pf2f96ffc6f)" style="fill: #ff8c00; opacity: 0.5"/>
   </g>
   <g id="patch_109">
    <path d="M 390.046003 290.22 
L 396.797001 290.22 
L 396.797001 202.528706 
L 390.046003 202.528706 
z
" clip-path="url(#pf2f96ffc6f)" style="fill: #ff8c00; opacity: 0.5"/>
   </g>
   <g id="patch_110">
    <path d="M 396.797001 290.22 
L 403.548 290.22 
L 403.548 211.051972 
L 396.797001 211.051972 
z
" clip-path="url(#pf2f96ffc6f)" style="fill: #ff8c00; opacity: 0.5"/>
   </g>
   <g id="patch_111">
    <path d="M 403.548 290.22 
L 410.298999 290.22 
L 410.298999 222.853417 
L 403.548 222.853417 
z
" clip-path="url(#pf2f96ffc6f)" style="fill: #ff8c00; opacity: 0.5"/>
   </g>
   <g id="patch_112">
    <path d="M 410.298999 290.22 
L 417.049997 290.22 
L 417.049997 233.5075 
L 410.298999 233.5075 
z
" clip-path="url(#pf2f96ffc6f)" style="fill: #ff8c00; opacity: 0.5"/>
   </g>
   <g id="patch_113">
    <path d="M 417.049997 290.22 
L 423.801004 290.22 
L 423.801004 240.227827 
L 417.049997 240.227827 
z
" clip-path="url(#pf2f96ffc6f)" style="fill: #ff8c00; opacity: 0.5"/>
   </g>
   <g id="patch_114">
    <path d="M 423.801004 290.22 
L 430.552003 290.22 
L 430.552003 249.734487 
L 423.801004 249.734487 
z
" clip-path="url(#pf2f96ffc6f)" style="fill: #ff8c00; opacity: 0.5"/>
   </g>
   <g id="patch_115">
    <path d="M 430.552003 290.22 
L 437.303001 290.22 
L 437.303001 256.126936 
L 430.552003 256.126936 
z
" clip-path="url(#pf2f96ffc6f)" style="fill: #ff8c00; opacity: 0.5"/>
   </g>
   <g id="patch_116">
    <path d="M 437.303001 290.22 
L 444.054 290.22 
L 444.054 260.22466 
L 437.303001 260.22466 
z
" clip-path="url(#pf2f96ffc6f)" style="fill: #ff8c00; opacity: 0.5"/>
   </g>
   <g id="patch_117">
    <path d="M 444.054 290.22 
L 450.804999 290.22 
L 450.804999 263.994566 
L 444.054 263.994566 
z
" clip-path="url(#pf2f96ffc6f)" style="fill: #ff8c00; opacity: 0.5"/>
   </g>
   <g id="patch_118">
    <path d="M 450.804999 290.22 
L 457.556005 290.22 
L 457.556005 264.158506 
L 450.804999 264.158506 
z
" clip-path="url(#pf2f96ffc6f)" style="fill: #ff8c00; opacity: 0.5"/>
   </g>
   <g id="patch_119">
    <path d="M 457.556005 290.22 
L 464.306996 290.22 
L 464.306996 275.959903 
L 457.556005 275.959903 
z
" clip-path="url(#pf2f96ffc6f)" style="fill: #ff8c00; opacity: 0.5"/>
   </g>
   <g id="patch_120">
    <path d="M 464.306996 290.22 
L 471.058003 290.22 
L 471.058003 278.418569 
L 464.306996 278.418569 
z
" clip-path="url(#pf2f96ffc6f)" style="fill: #ff8c00; opacity: 0.5"/>
   </g>
   <g id="patch_121">
    <path d="M 471.058003 290.22 
L 477.808993 290.22 
L 477.808993 280.057632 
L 471.058003 280.057632 
z
" clip-path="url(#pf2f96ffc6f)" style="fill: #ff8c00; opacity: 0.5"/>
   </g>
   <g id="patch_122">
    <path d="M 477.808993 290.22 
L 484.56 290.22 
L 484.56 282.516288 
L 477.808993 282.516288 
z
" clip-path="url(#pf2f96ffc6f)" style="fill: #ff8c00; opacity: 0.5"/>
   </g>
   <g id="patch_123">
    <path d="M 79.5 290.22 
L 86.251007 290.22 
L 86.251007 290.056939 
L 79.5 290.056939 
z
" clip-path="url(#pf2f96ffc6f)" style="fill: #2e8b57; opacity: 0.5"/>
   </g>
   <g id="patch_124">
    <path d="M 86.251007 290.22 
L 93.001997 290.22 
L 93.001997 289.241629 
L 86.251007 289.241629 
z
" clip-path="url(#pf2f96ffc6f)" style="fill: #2e8b57; opacity: 0.5"/>
   </g>
   <g id="patch_125">
    <path d="M 93.001997 290.22 
L 99.753004 290.22 
L 99.753004 289.730816 
L 93.001997 289.730816 
z
" clip-path="url(#pf2f96ffc6f)" style="fill: #2e8b57; opacity: 0.5"/>
   </g>
   <g id="patch_126">
    <path d="M 99.753004 290.22 
L 106.503995 290.22 
L 106.503995 289.404691 
L 99.753004 289.404691 
z
" clip-path="url(#pf2f96ffc6f)" style="fill: #2e8b57; opacity: 0.5"/>
   </g>
   <g id="patch_127">
    <path d="M 106.503995 290.22 
L 113.255001 290.22 
L 113.255001 288.263263 
L 106.503995 288.263263 
z
" clip-path="url(#pf2f96ffc6f)" style="fill: #2e8b57; opacity: 0.5"/>
   </g>
   <g id="patch_128">
    <path d="M 113.255001 290.22 
L 120.005992 290.22 
L 120.005992 288.589382 
L 113.255001 288.589382 
z
" clip-path="url(#pf2f96ffc6f)" style="fill: #2e8b57; opacity: 0.5"/>
   </g>
   <g id="patch_129">
    <path d="M 120.005992 290.22 
L 126.756999 290.22 
L 126.756999 287.447956 
L 120.005992 287.447956 
z
" clip-path="url(#pf2f96ffc6f)" style="fill: #2e8b57; opacity: 0.5"/>
   </g>
   <g id="patch_130">
    <path d="M 126.756999 290.22 
L 133.508005 290.22 
L 133.508005 287.284895 
L 126.756999 287.284895 
z
" clip-path="url(#pf2f96ffc6f)" style="fill: #2e8b57; opacity: 0.5"/>
   </g>
   <g id="patch_131">
    <path d="M 133.508005 290.22 
L 140.258996 290.22 
L 140.258996 284.186714 
L 133.508005 284.186714 
z
" clip-path="url(#pf2f96ffc6f)" style="fill: #2e8b57; opacity: 0.5"/>
   </g>
   <g id="patch_132">
    <path d="M 140.258996 290.22 
L 147.010003 290.22 
L 147.010003 284.023667 
L 140.258996 284.023667 
z
" clip-path="url(#pf2f96ffc6f)" style="fill: #2e8b57; opacity: 0.5"/>
   </g>
   <g id="patch_133">
    <path d="M 147.010003 290.22 
L 153.760993 290.22 
L 153.760993 281.414664 
L 147.010003 281.414664 
z
" clip-path="url(#pf2f96ffc6f)" style="fill: #2e8b57; opacity: 0.5"/>
   </g>
   <g id="patch_134">
    <path d="M 153.760993 290.22 
L 160.512 290.22 
L 160.512 278.968764 
L 153.760993 278.968764 
z
" clip-path="url(#pf2f96ffc6f)" style="fill: #2e8b57; opacity: 0.5"/>
   </g>
   <g id="patch_135">
    <path d="M 160.512 290.22 
L 167.263007 290.22 
L 167.263007 277.827335 
L 160.512 277.827335 
z
" clip-path="url(#pf2f96ffc6f)" style="fill: #2e8b57; opacity: 0.5"/>
   </g>
   <g id="patch_136">
    <path d="M 167.263007 290.22 
L 174.013997 290.22 
L 174.013997 274.729131 
L 167.263007 274.729131 
z
" clip-path="url(#pf2f96ffc6f)" style="fill: #2e8b57; opacity: 0.5"/>
   </g>
   <g id="patch_137">
    <path d="M 174.013997 290.22 
L 180.765004 290.22 
L 180.765004 266.249976 
L 174.013997 266.249976 
z
" clip-path="url(#pf2f96ffc6f)" style="fill: #2e8b57; opacity: 0.5"/>
   </g>
   <g id="patch_138">
    <path d="M 180.765004 290.22 
L 187.516003 290.22 
L 187.516003 260.542792 
L 180.765004 260.542792 
z
" clip-path="url(#pf2f96ffc6f)" style="fill: #2e8b57; opacity: 0.5"/>
   </g>
   <g id="patch_139">
    <path d="M 187.516003 290.22 
L 194.267001 290.22 
L 194.267001 254.672575 
L 187.516003 254.672575 
z
" clip-path="url(#pf2f96ffc6f)" style="fill: #2e8b57; opacity: 0.5"/>
   </g>
   <g id="patch_140">
    <path d="M 194.267001 290.22 
L 201.018 290.22 
L 201.018 247.171743 
L 194.267001 247.171743 
z
" clip-path="url(#pf2f96ffc6f)" style="fill: #2e8b57; opacity: 0.5"/>
   </g>
   <g id="patch_141">
    <path d="M 201.018 290.22 
L 207.768999 290.22 
L 207.768999 240.486218 
L 201.018 240.486218 
z
" clip-path="url(#pf2f96ffc6f)" style="fill: #2e8b57; opacity: 0.5"/>
   </g>
   <g id="patch_142">
    <path d="M 207.768999 290.22 
L 214.519997 290.22 
L 214.519997 228.745784 
L 207.768999 228.745784 
z
" clip-path="url(#pf2f96ffc6f)" style="fill: #2e8b57; opacity: 0.5"/>
   </g>
   <g id="patch_143">
    <path d="M 214.519997 290.22 
L 221.270996 290.22 
L 221.270996 214.559427 
L 214.519997 214.559427 
z
" clip-path="url(#pf2f96ffc6f)" style="fill: #2e8b57; opacity: 0.5"/>
   </g>
   <g id="patch_144">
    <path d="M 221.270996 290.22 
L 228.022003 290.22 
L 228.022003 197.111949 
L 221.270996 197.111949 
z
" clip-path="url(#pf2f96ffc6f)" style="fill: #2e8b57; opacity: 0.5"/>
   </g>
   <g id="patch_145">
    <path d="M 228.022003 290.22 
L 234.773001 290.22 
L 234.773001 182.599357 
L 228.022003 182.599357 
z
" clip-path="url(#pf2f96ffc6f)" style="fill: #2e8b57; opacity: 0.5"/>
   </g>
   <g id="patch_146">
    <path d="M 234.773001 290.22 
L 241.524 290.22 
L 241.524 176.72914 
L 234.773001 176.72914 
z
" clip-path="url(#pf2f96ffc6f)" style="fill: #2e8b57; opacity: 0.5"/>
   </g>
   <g id="patch_147">
    <path d="M 241.524 290.22 
L 248.274999 290.22 
L 248.274999 159.770736 
L 241.524 159.770736 
z
" clip-path="url(#pf2f96ffc6f)" style="fill: #2e8b57; opacity: 0.5"/>
   </g>
   <g id="patch_148">
    <path d="M 248.274999 290.22 
L 255.026001 290.22 
L 255.026001 143.464665 
L 248.274999 143.464665 
z
" clip-path="url(#pf2f96ffc6f)" style="fill: #2e8b57; opacity: 0.5"/>
   </g>
   <g id="patch_149">
    <path d="M 255.026001 290.22 
L 261.777 290.22 
L 261.777 129.27822 
L 255.026001 129.27822 
z
" clip-path="url(#pf2f96ffc6f)" style="fill: #2e8b57; opacity: 0.5"/>
   </g>
   <g id="patch_150">
    <path d="M 261.777 290.22 
L 268.527999 290.22 
L 268.527999 110.363077 
L 261.777 110.363077 
z
" clip-path="url(#pf2f96ffc6f)" style="fill: #2e8b57; opacity: 0.5"/>
   </g>
   <g id="patch_151">
    <path d="M 268.527999 290.22 
L 275.279001 290.22 
L 275.279001 97.80745 
L 268.527999 97.80745 
z
" clip-path="url(#pf2f96ffc6f)" style="fill: #2e8b57; opacity: 0.5"/>
   </g>
   <g id="patch_152">
    <path d="M 275.279001 290.22 
L 282.03 290.22 
L 282.03 90.306502 
L 275.279001 90.306502 
z
" clip-path="url(#pf2f96ffc6f)" style="fill: #2e8b57; opacity: 0.5"/>
   </g>
   <g id="patch_153">
    <path d="M 282.03 290.22 
L 288.781001 290.22 
L 288.781001 84.110224 
L 282.03 84.110224 
z
" clip-path="url(#pf2f96ffc6f)" style="fill: #2e8b57; opacity: 0.5"/>
   </g>
   <g id="patch_154">
    <path d="M 288.781001 290.22 
L 295.531999 290.22 
L 295.531999 71.228297 
L 288.781001 71.228297 
z
" clip-path="url(#pf2f96ffc6f)" style="fill: #2e8b57; opacity: 0.5"/>
   </g>
   <g id="patch_155">
    <path d="M 295.531999 290.22 
L 302.283 290.22 
L 302.283 58.18344 
L 295.531999 58.18344 
z
" clip-path="url(#pf2f96ffc6f)" style="fill: #2e8b57; opacity: 0.5"/>
   </g>
   <g id="patch_156">
    <path d="M 302.283 290.22 
L 309.034 290.22 
L 309.034 56.55279 
L 302.283 56.55279 
z
" clip-path="url(#pf2f96ffc6f)" style="fill: #2e8b57; opacity: 0.5"/>
   </g>
   <g id="patch_157">
    <path d="M 309.034 290.22 
L 315.785 290.22 
L 315.785 60.303223 
L 309.034 60.303223 
z
" clip-path="url(#pf2f96ffc6f)" style="fill: #2e8b57; opacity: 0.5"/>
   </g>
   <g id="patch_158">
    <path d="M 315.785 290.22 
L 322.536 290.22 
L 322.536 54.75913 
L 315.785 54.75913 
z
" clip-path="url(#pf2f96ffc6f)" style="fill: #2e8b57; opacity: 0.5"/>
   </g>
   <g id="patch_159">
    <path d="M 322.536 290.22 
L 329.287 290.22 
L 329.287 67.151791 
L 322.536 67.151791 
z
" clip-path="url(#pf2f96ffc6f)" style="fill: #2e8b57; opacity: 0.5"/>
   </g>
   <g id="patch_160">
    <path d="M 329.287 290.22 
L 336.037999 290.22 
L 336.037999 62.912191 
L 329.287 62.912191 
z
" clip-path="url(#pf2f96ffc6f)" style="fill: #2e8b57; opacity: 0.5"/>
   </g>
   <g id="patch_161">
    <path d="M 336.037999 290.22 
L 342.789 290.22 
L 342.789 88.675947 
L 336.037999 88.675947 
z
" clip-path="url(#pf2f96ffc6f)" style="fill: #2e8b57; opacity: 0.5"/>
   </g>
   <g id="patch_162">
    <path d="M 342.789 290.22 
L 349.540001 290.22 
L 349.540001 108.569454 
L 342.789 108.569454 
z
" clip-path="url(#pf2f96ffc6f)" style="fill: #2e8b57; opacity: 0.5"/>
   </g>
   <g id="patch_163">
    <path d="M 349.540001 290.22 
L 356.291001 290.22 
L 356.291001 107.428023 
L 349.540001 107.428023 
z
" clip-path="url(#pf2f96ffc6f)" style="fill: #2e8b57; opacity: 0.5"/>
   </g>
   <g id="patch_164">
    <path d="M 356.291001 290.22 
L 363.042 290.22 
L 363.042 128.789035 
L 356.291001 128.789035 
z
" clip-path="url(#pf2f96ffc6f)" style="fill: #2e8b57; opacity: 0.5"/>
   </g>
   <g id="patch_165">
    <path d="M 363.042 290.22 
L 369.792999 290.22 
L 369.792999 141.833962 
L 363.042 141.833962 
z
" clip-path="url(#pf2f96ffc6f)" style="fill: #2e8b57; opacity: 0.5"/>
   </g>
   <g id="patch_166">
    <path d="M 369.792999 290.22 
L 376.544001 290.22 
L 376.544001 156.346522 
L 369.792999 156.346522 
z
" clip-path="url(#pf2f96ffc6f)" style="fill: #2e8b57; opacity: 0.5"/>
   </g>
   <g id="patch_167">
    <path d="M 376.544001 290.22 
L 383.295 290.22 
L 383.295 176.892202 
L 376.544001 176.892202 
z
" clip-path="url(#pf2f96ffc6f)" style="fill: #2e8b57; opacity: 0.5"/>
   </g>
   <g id="patch_168">
    <path d="M 383.295 290.22 
L 390.046003 290.22 
L 390.046003 188.143512 
L 383.295 188.143512 
z
" clip-path="url(#pf2f96ffc6f)" style="fill: #2e8b57; opacity: 0.5"/>
   </g>
   <g id="patch_169">
    <path d="M 390.046003 290.22 
L 396.797001 290.22 
L 396.797001 203.960424 
L 390.046003 203.960424 
z
" clip-path="url(#pf2f96ffc6f)" style="fill: #2e8b57; opacity: 0.5"/>
   </g>
   <g id="patch_170">
    <path d="M 396.797001 290.22 
L 403.548 290.22 
L 403.548 216.353104 
L 396.797001 216.353104 
z
" clip-path="url(#pf2f96ffc6f)" style="fill: #2e8b57; opacity: 0.5"/>
   </g>
   <g id="patch_171">
    <path d="M 403.548 290.22 
L 410.298999 290.22 
L 410.298999 225.647614 
L 403.548 225.647614 
z
" clip-path="url(#pf2f96ffc6f)" style="fill: #2e8b57; opacity: 0.5"/>
   </g>
   <g id="patch_172">
    <path d="M 410.298999 290.22 
L 417.049997 290.22 
L 417.049997 237.714171 
L 410.298999 237.714171 
z
" clip-path="url(#pf2f96ffc6f)" style="fill: #2e8b57; opacity: 0.5"/>
   </g>
   <g id="patch_173">
    <path d="M 417.049997 290.22 
L 423.801004 290.22 
L 423.801004 244.399751 
L 417.049997 244.399751 
z
" clip-path="url(#pf2f96ffc6f)" style="fill: #2e8b57; opacity: 0.5"/>
   </g>
   <g id="patch_174">
    <path d="M 423.801004 290.22 
L 430.552003 290.22 
L 430.552003 256.14013 
L 423.801004 256.14013 
z
" clip-path="url(#pf2f96ffc6f)" style="fill: #2e8b57; opacity: 0.5"/>
   </g>
   <g id="patch_175">
    <path d="M 430.552003 290.22 
L 437.303001 290.22 
L 437.303001 267.391379 
L 430.552003 267.391379 
z
" clip-path="url(#pf2f96ffc6f)" style="fill: #2e8b57; opacity: 0.5"/>
   </g>
   <g id="patch_176">
    <path d="M 437.303001 290.22 
L 444.054 290.22 
L 444.054 269.837302 
L 437.303001 269.837302 
z
" clip-path="url(#pf2f96ffc6f)" style="fill: #2e8b57; opacity: 0.5"/>
   </g>
   <g id="patch_177">
    <path d="M 444.054 290.22 
L 450.804999 290.22 
L 450.804999 269.837302 
L 444.054 269.837302 
z
" clip-path="url(#pf2f96ffc6f)" style="fill: #2e8b57; opacity: 0.5"/>
   </g>
   <g id="patch_178">
    <path d="M 450.804999 290.22 
L 457.556005 290.22 
L 457.556005 278.47958 
L 450.804999 278.47958 
z
" clip-path="url(#pf2f96ffc6f)" style="fill: #2e8b57; opacity: 0.5"/>
   </g>
   <g id="patch_179">
    <path d="M 457.556005 290.22 
L 464.306996 290.22 
L 464.306996 282.066911 
L 457.556005 282.066911 
z
" clip-path="url(#pf2f96ffc6f)" style="fill: #2e8b57; opacity: 0.5"/>
   </g>
   <g id="patch_180">
    <path d="M 464.306996 290.22 
L 471.058003 290.22 
L 471.058003 282.882238 
L 464.306996 282.882238 
z
" clip-path="url(#pf2f96ffc6f)" style="fill: #2e8b57; opacity: 0.5"/>
   </g>
   <g id="patch_181">
    <path d="M 471.058003 290.22 
L 477.808993 290.22 
L 477.808993 284.6759 
L 471.058003 284.6759 
z
" clip-path="url(#pf2f96ffc6f)" style="fill: #2e8b57; opacity: 0.5"/>
   </g>
   <g id="patch_182">
    <path d="M 477.808993 290.22 
L 484.56 290.22 
L 484.56 286.63265 
L 477.808993 286.63265 
z
" clip-path="url(#pf2f96ffc6f)" style="fill: #2e8b57; opacity: 0.5"/>
   </g>
   <g id="matplotlib.axis_1">
    <g id="xtick_1">
     <g id="line2d_1">
      <defs>
       <path id="mcbe8d90211" d="M 0 0 
L 0 9 
" style="stroke: #000000; stroke-width: 1.875"/>
      </defs>
      <g>
       <use xlink:href="#mcbe8d90211" x="114.825846" y="290.22" style="stroke: #000000; stroke-width: 1.875"/>
      </g>
     </g>
     <g id="text_1">
      <!-- −3 -->
      <g transform="translate(102.663542 315.257422) scale(0.165 -0.165)">
       <defs>
        <path id="DejaVuSans-2212" d="M 678 2272 
L 4684 2272 
L 4684 1741 
L 678 1741 
L 678 2272 
z
" transform="scale(0.015625)"/>
        <path id="DejaVuSans-33" d="M 2597 2516 
Q 3050 2419 3304 2112 
Q 3559 1806 3559 1356 
Q 3559 666 3084 287 
Q 2609 -91 1734 -91 
Q 1441 -91 1130 -33 
Q 819 25 488 141 
L 488 750 
Q 750 597 1062 519 
Q 1375 441 1716 441 
Q 2309 441 2620 675 
Q 2931 909 2931 1356 
Q 2931 1769 2642 2001 
Q 2353 2234 1838 2234 
L 1294 2234 
L 1294 2753 
L 1863 2753 
Q 2328 2753 2575 2939 
Q 2822 3125 2822 3475 
Q 2822 3834 2567 4026 
Q 2313 4219 1838 4219 
Q 1578 4219 1281 4162 
Q 984 4106 628 3988 
L 628 4550 
Q 988 4650 1302 4700 
Q 1616 4750 1894 4750 
Q 2613 4750 3031 4423 
Q 3450 4097 3450 3541 
Q 3450 3153 3228 2886 
Q 3006 2619 2597 2516 
z
" transform="scale(0.015625)"/>
       </defs>
       <use xlink:href="#DejaVuSans-2212"/>
       <use xlink:href="#DejaVuSans-33" transform="translate(83.789062 0)"/>
      </g>
     </g>
    </g>
    <g id="xtick_2">
     <g id="line2d_2">
      <g>
       <use xlink:href="#mcbe8d90211" x="182.403325" y="290.22" style="stroke: #000000; stroke-width: 1.875"/>
      </g>
     </g>
     <g id="text_2">
      <!-- −2 -->
      <g transform="translate(170.24102 315.257422) scale(0.165 -0.165)">
       <defs>
        <path id="DejaVuSans-32" d="M 1228 531 
L 3431 531 
L 3431 0 
L 469 0 
L 469 531 
Q 828 903 1448 1529 
Q 2069 2156 2228 2338 
Q 2531 2678 2651 2914 
Q 2772 3150 2772 3378 
Q 2772 3750 2511 3984 
Q 2250 4219 1831 4219 
Q 1534 4219 1204 4116 
Q 875 4013 500 3803 
L 500 4441 
Q 881 4594 1212 4672 
Q 1544 4750 1819 4750 
Q 2544 4750 2975 4387 
Q 3406 4025 3406 3419 
Q 3406 3131 3298 2873 
Q 3191 2616 2906 2266 
Q 2828 2175 2409 1742 
Q 1991 1309 1228 531 
z
" transform="scale(0.015625)"/>
       </defs>
       <use xlink:href="#DejaVuSans-2212"/>
       <use xlink:href="#DejaVuSans-32" transform="translate(83.789062 0)"/>
      </g>
     </g>
    </g>
    <g id="xtick_3">
     <g id="line2d_3">
      <g>
       <use xlink:href="#mcbe8d90211" x="249.980804" y="290.22" style="stroke: #000000; stroke-width: 1.875"/>
      </g>
     </g>
     <g id="text_3">
      <!-- −1 -->
      <g transform="translate(237.818499 315.257422) scale(0.165 -0.165)">
       <defs>
        <path id="DejaVuSans-31" d="M 794 531 
L 1825 531 
L 1825 4091 
L 703 3866 
L 703 4441 
L 1819 4666 
L 2450 4666 
L 2450 531 
L 3481 531 
L 3481 0 
L 794 0 
L 794 531 
z
" transform="scale(0.015625)"/>
       </defs>
       <use xlink:href="#DejaVuSans-2212"/>
       <use xlink:href="#DejaVuSans-31" transform="translate(83.789062 0)"/>
      </g>
     </g>
    </g>
    <g id="xtick_4">
     <g id="line2d_4">
      <g>
       <use xlink:href="#mcbe8d90211" x="317.558282" y="290.22" style="stroke: #000000; stroke-width: 1.875"/>
      </g>
     </g>
     <g id="text_4">
      <!-- 0 -->
      <g transform="translate(312.30922 315.257422) scale(0.165 -0.165)">
       <defs>
        <path id="DejaVuSans-30" d="M 2034 4250 
Q 1547 4250 1301 3770 
Q 1056 3291 1056 2328 
Q 1056 1369 1301 889 
Q 1547 409 2034 409 
Q 2525 409 2770 889 
Q 3016 1369 3016 2328 
Q 3016 3291 2770 3770 
Q 2525 4250 2034 4250 
z
M 2034 4750 
Q 2819 4750 3233 4129 
Q 3647 3509 3647 2328 
Q 3647 1150 3233 529 
Q 2819 -91 2034 -91 
Q 1250 -91 836 529 
Q 422 1150 422 2328 
Q 422 3509 836 4129 
Q 1250 4750 2034 4750 
z
" transform="scale(0.015625)"/>
       </defs>
       <use xlink:href="#DejaVuSans-30"/>
      </g>
     </g>
    </g>
    <g id="xtick_5">
     <g id="line2d_5">
      <g>
       <use xlink:href="#mcbe8d90211" x="385.135761" y="290.22" style="stroke: #000000; stroke-width: 1.875"/>
      </g>
     </g>
     <g id="text_5">
      <!-- 1 -->
      <g transform="translate(379.886698 315.257422) scale(0.165 -0.165)">
       <use xlink:href="#DejaVuSans-31"/>
      </g>
     </g>
    </g>
    <g id="xtick_6">
     <g id="line2d_6">
      <g>
       <use xlink:href="#mcbe8d90211" x="452.713239" y="290.22" style="stroke: #000000; stroke-width: 1.875"/>
      </g>
     </g>
     <g id="text_6">
      <!-- 2 -->
      <g transform="translate(447.464177 315.257422) scale(0.165 -0.165)">
       <use xlink:href="#DejaVuSans-32"/>
      </g>
     </g>
    </g>
    <g id="text_7">
     <!-- Membrane potential -->
     <g transform="translate(190.895156 336.366094) scale(0.18 -0.18)">
      <defs>
       <path id="DejaVuSans-4d" d="M 628 4666 
L 1569 4666 
L 2759 1491 
L 3956 4666 
L 4897 4666 
L 4897 0 
L 4281 0 
L 4281 4097 
L 3078 897 
L 2444 897 
L 1241 4097 
L 1241 0 
L 628 0 
L 628 4666 
z
" transform="scale(0.015625)"/>
       <path id="DejaVuSans-65" d="M 3597 1894 
L 3597 1613 
L 953 1613 
Q 991 1019 1311 708 
Q 1631 397 2203 397 
Q 2534 397 2845 478 
Q 3156 559 3463 722 
L 3463 178 
Q 3153 47 2828 -22 
Q 2503 -91 2169 -91 
Q 1331 -91 842 396 
Q 353 884 353 1716 
Q 353 2575 817 3079 
Q 1281 3584 2069 3584 
Q 2775 3584 3186 3129 
Q 3597 2675 3597 1894 
z
M 3022 2063 
Q 3016 2534 2758 2815 
Q 2500 3097 2075 3097 
Q 1594 3097 1305 2825 
Q 1016 2553 972 2059 
L 3022 2063 
z
" transform="scale(0.015625)"/>
       <path id="DejaVuSans-6d" d="M 3328 2828 
Q 3544 3216 3844 3400 
Q 4144 3584 4550 3584 
Q 5097 3584 5394 3201 
Q 5691 2819 5691 2113 
L 5691 0 
L 5113 0 
L 5113 2094 
Q 5113 2597 4934 2840 
Q 4756 3084 4391 3084 
Q 3944 3084 3684 2787 
Q 3425 2491 3425 1978 
L 3425 0 
L 2847 0 
L 2847 2094 
Q 2847 2600 2669 2842 
Q 2491 3084 2119 3084 
Q 1678 3084 1418 2786 
Q 1159 2488 1159 1978 
L 1159 0 
L 581 0 
L 581 3500 
L 1159 3500 
L 1159 2956 
Q 1356 3278 1631 3431 
Q 1906 3584 2284 3584 
Q 2666 3584 2933 3390 
Q 3200 3197 3328 2828 
z
" transform="scale(0.015625)"/>
       <path id="DejaVuSans-62" d="M 3116 1747 
Q 3116 2381 2855 2742 
Q 2594 3103 2138 3103 
Q 1681 3103 1420 2742 
Q 1159 2381 1159 1747 
Q 1159 1113 1420 752 
Q 1681 391 2138 391 
Q 2594 391 2855 752 
Q 3116 1113 3116 1747 
z
M 1159 2969 
Q 1341 3281 1617 3432 
Q 1894 3584 2278 3584 
Q 2916 3584 3314 3078 
Q 3713 2572 3713 1747 
Q 3713 922 3314 415 
Q 2916 -91 2278 -91 
Q 1894 -91 1617 61 
Q 1341 213 1159 525 
L 1159 0 
L 581 0 
L 581 4863 
L 1159 4863 
L 1159 2969 
z
" transform="scale(0.015625)"/>
       <path id="DejaVuSans-72" d="M 2631 2963 
Q 2534 3019 2420 3045 
Q 2306 3072 2169 3072 
Q 1681 3072 1420 2755 
Q 1159 2438 1159 1844 
L 1159 0 
L 581 0 
L 581 3500 
L 1159 3500 
L 1159 2956 
Q 1341 3275 1631 3429 
Q 1922 3584 2338 3584 
Q 2397 3584 2469 3576 
Q 2541 3569 2628 3553 
L 2631 2963 
z
" transform="scale(0.015625)"/>
       <path id="DejaVuSans-61" d="M 2194 1759 
Q 1497 1759 1228 1600 
Q 959 1441 959 1056 
Q 959 750 1161 570 
Q 1363 391 1709 391 
Q 2188 391 2477 730 
Q 2766 1069 2766 1631 
L 2766 1759 
L 2194 1759 
z
M 3341 1997 
L 3341 0 
L 2766 0 
L 2766 531 
Q 2569 213 2275 61 
Q 1981 -91 1556 -91 
Q 1019 -91 701 211 
Q 384 513 384 1019 
Q 384 1609 779 1909 
Q 1175 2209 1959 2209 
L 2766 2209 
L 2766 2266 
Q 2766 2663 2505 2880 
Q 2244 3097 1772 3097 
Q 1472 3097 1187 3025 
Q 903 2953 641 2809 
L 641 3341 
Q 956 3463 1253 3523 
Q 1550 3584 1831 3584 
Q 2591 3584 2966 3190 
Q 3341 2797 3341 1997 
z
" transform="scale(0.015625)"/>
       <path id="DejaVuSans-6e" d="M 3513 2113 
L 3513 0 
L 2938 0 
L 2938 2094 
Q 2938 2591 2744 2837 
Q 2550 3084 2163 3084 
Q 1697 3084 1428 2787 
Q 1159 2491 1159 1978 
L 1159 0 
L 581 0 
L 581 3500 
L 1159 3500 
L 1159 2956 
Q 1366 3272 1645 3428 
Q 1925 3584 2291 3584 
Q 2894 3584 3203 3211 
Q 3513 2838 3513 2113 
z
" transform="scale(0.015625)"/>
       <path id="DejaVuSans-20" transform="scale(0.015625)"/>
       <path id="DejaVuSans-70" d="M 1159 525 
L 1159 -1331 
L 581 -1331 
L 581 3500 
L 1159 3500 
L 1159 2969 
Q 1341 3281 1617 3432 
Q 1894 3584 2278 3584 
Q 2916 3584 3314 3078 
Q 3713 2572 3713 1747 
Q 3713 922 3314 415 
Q 2916 -91 2278 -91 
Q 1894 -91 1617 61 
Q 1341 213 1159 525 
z
M 3116 1747 
Q 3116 2381 2855 2742 
Q 2594 3103 2138 3103 
Q 1681 3103 1420 2742 
Q 1159 2381 1159 1747 
Q 1159 1113 1420 752 
Q 1681 391 2138 391 
Q 2594 391 2855 752 
Q 3116 1113 3116 1747 
z
" transform="scale(0.015625)"/>
       <path id="DejaVuSans-6f" d="M 1959 3097 
Q 1497 3097 1228 2736 
Q 959 2375 959 1747 
Q 959 1119 1226 758 
Q 1494 397 1959 397 
Q 2419 397 2687 759 
Q 2956 1122 2956 1747 
Q 2956 2369 2687 2733 
Q 2419 3097 1959 3097 
z
M 1959 3584 
Q 2709 3584 3137 3096 
Q 3566 2609 3566 1747 
Q 3566 888 3137 398 
Q 2709 -91 1959 -91 
Q 1206 -91 779 398 
Q 353 888 353 1747 
Q 353 2609 779 3096 
Q 1206 3584 1959 3584 
z
" transform="scale(0.015625)"/>
       <path id="DejaVuSans-74" d="M 1172 4494 
L 1172 3500 
L 2356 3500 
L 2356 3053 
L 1172 3053 
L 1172 1153 
Q 1172 725 1289 603 
Q 1406 481 1766 481 
L 2356 481 
L 2356 0 
L 1766 0 
Q 1100 0 847 248 
Q 594 497 594 1153 
L 594 3053 
L 172 3053 
L 172 3500 
L 594 3500 
L 594 4494 
L 1172 4494 
z
" transform="scale(0.015625)"/>
       <path id="DejaVuSans-69" d="M 603 3500 
L 1178 3500 
L 1178 0 
L 603 0 
L 603 3500 
z
M 603 4863 
L 1178 4863 
L 1178 4134 
L 603 4134 
L 603 4863 
z
" transform="scale(0.015625)"/>
       <path id="DejaVuSans-6c" d="M 603 4863 
L 1178 4863 
L 1178 0 
L 603 0 
L 603 4863 
z
" transform="scale(0.015625)"/>
      </defs>
      <use xlink:href="#DejaVuSans-4d"/>
      <use xlink:href="#DejaVuSans-65" transform="translate(86.279297 0)"/>
      <use xlink:href="#DejaVuSans-6d" transform="translate(147.802734 0)"/>
      <use xlink:href="#DejaVuSans-62" transform="translate(245.214844 0)"/>
      <use xlink:href="#DejaVuSans-72" transform="translate(308.691406 0)"/>
      <use xlink:href="#DejaVuSans-61" transform="translate(349.804688 0)"/>
      <use xlink:href="#DejaVuSans-6e" transform="translate(411.083984 0)"/>
      <use xlink:href="#DejaVuSans-65" transform="translate(474.462891 0)"/>
      <use xlink:href="#DejaVuSans-20" transform="translate(535.986328 0)"/>
      <use xlink:href="#DejaVuSans-70" transform="translate(567.773438 0)"/>
      <use xlink:href="#DejaVuSans-6f" transform="translate(631.25 0)"/>
      <use xlink:href="#DejaVuSans-74" transform="translate(692.431641 0)"/>
      <use xlink:href="#DejaVuSans-65" transform="translate(731.640625 0)"/>
      <use xlink:href="#DejaVuSans-6e" transform="translate(793.164062 0)"/>
      <use xlink:href="#DejaVuSans-74" transform="translate(856.542969 0)"/>
      <use xlink:href="#DejaVuSans-69" transform="translate(895.751953 0)"/>
      <use xlink:href="#DejaVuSans-61" transform="translate(923.535156 0)"/>
      <use xlink:href="#DejaVuSans-6c" transform="translate(984.814453 0)"/>
     </g>
    </g>
   </g>
   <g id="matplotlib.axis_2">
    <g id="ytick_1">
     <g id="line2d_7">
      <defs>
       <path id="m2fbdc818b8" d="M 0 0 
L -9 0 
" style="stroke: #000000; stroke-width: 1.875"/>
      </defs>
      <g>
       <use xlink:href="#m2fbdc818b8" x="79.5" y="290.22" style="stroke: #000000; stroke-width: 1.875"/>
      </g>
     </g>
     <g id="text_8">
      <!-- 0.0 -->
      <g transform="translate(40.759844 296.488711) scale(0.165 -0.165)">
       <defs>
        <path id="DejaVuSans-2e" d="M 684 794 
L 1344 794 
L 1344 0 
L 684 0 
L 684 794 
z
" transform="scale(0.015625)"/>
       </defs>
       <use xlink:href="#DejaVuSans-30"/>
       <use xlink:href="#DejaVuSans-2e" transform="translate(63.623047 0)"/>
       <use xlink:href="#DejaVuSans-30" transform="translate(95.410156 0)"/>
      </g>
     </g>
    </g>
    <g id="ytick_2">
     <g id="line2d_8">
      <g>
       <use xlink:href="#m2fbdc818b8" x="79.5" y="238.229243" style="stroke: #000000; stroke-width: 1.875"/>
      </g>
     </g>
     <g id="text_9">
      <!-- 0.1 -->
      <g transform="translate(40.759844 244.497954) scale(0.165 -0.165)">
       <use xlink:href="#DejaVuSans-30"/>
       <use xlink:href="#DejaVuSans-2e" transform="translate(63.623047 0)"/>
       <use xlink:href="#DejaVuSans-31" transform="translate(95.410156 0)"/>
      </g>
     </g>
    </g>
    <g id="ytick_3">
     <g id="line2d_9">
      <g>
       <use xlink:href="#m2fbdc818b8" x="79.5" y="186.238486" style="stroke: #000000; stroke-width: 1.875"/>
      </g>
     </g>
     <g id="text_10">
      <!-- 0.2 -->
      <g transform="translate(40.759844 192.507197) scale(0.165 -0.165)">
       <use xlink:href="#DejaVuSans-30"/>
       <use xlink:href="#DejaVuSans-2e" transform="translate(63.623047 0)"/>
       <use xlink:href="#DejaVuSans-32" transform="translate(95.410156 0)"/>
      </g>
     </g>
    </g>
    <g id="ytick_4">
     <g id="line2d_10">
      <g>
       <use xlink:href="#m2fbdc818b8" x="79.5" y="134.247729" style="stroke: #000000; stroke-width: 1.875"/>
      </g>
     </g>
     <g id="text_11">
      <!-- 0.3 -->
      <g transform="translate(40.759844 140.51644) scale(0.165 -0.165)">
       <use xlink:href="#DejaVuSans-30"/>
       <use xlink:href="#DejaVuSans-2e" transform="translate(63.623047 0)"/>
       <use xlink:href="#DejaVuSans-33" transform="translate(95.410156 0)"/>
      </g>
     </g>
    </g>
    <g id="ytick_5">
     <g id="line2d_11">
      <g>
       <use xlink:href="#m2fbdc818b8" x="79.5" y="82.256972" style="stroke: #000000; stroke-width: 1.875"/>
      </g>
     </g>
     <g id="text_12">
      <!-- 0.4 -->
      <g transform="translate(40.759844 88.525682) scale(0.165 -0.165)">
       <defs>
        <path id="DejaVuSans-34" d="M 2419 4116 
L 825 1625 
L 2419 1625 
L 2419 4116 
z
M 2253 4666 
L 3047 4666 
L 3047 1625 
L 3713 1625 
L 3713 1100 
L 3047 1100 
L 3047 0 
L 2419 0 
L 2419 1100 
L 313 1100 
L 313 1709 
L 2253 4666 
z
" transform="scale(0.015625)"/>
       </defs>
       <use xlink:href="#DejaVuSans-30"/>
       <use xlink:href="#DejaVuSans-2e" transform="translate(63.623047 0)"/>
       <use xlink:href="#DejaVuSans-34" transform="translate(95.410156 0)"/>
      </g>
     </g>
    </g>
    <g id="ytick_6">
     <g id="line2d_12">
      <g>
       <use xlink:href="#m2fbdc818b8" x="79.5" y="30.266214" style="stroke: #000000; stroke-width: 1.875"/>
      </g>
     </g>
     <g id="text_13">
      <!-- 0.5 -->
      <g transform="translate(40.759844 36.534925) scale(0.165 -0.165)">
       <defs>
        <path id="DejaVuSans-35" d="M 691 4666 
L 3169 4666 
L 3169 4134 
L 1269 4134 
L 1269 2991 
Q 1406 3038 1543 3061 
Q 1681 3084 1819 3084 
Q 2600 3084 3056 2656 
Q 3513 2228 3513 1497 
Q 3513 744 3044 326 
Q 2575 -91 1722 -91 
Q 1428 -91 1123 -41 
Q 819 9 494 109 
L 494 744 
Q 775 591 1075 516 
Q 1375 441 1709 441 
Q 2250 441 2565 725 
Q 2881 1009 2881 1497 
Q 2881 1984 2565 2268 
Q 2250 2553 1709 2553 
Q 1456 2553 1204 2497 
Q 953 2441 691 2322 
L 691 4666 
z
" transform="scale(0.015625)"/>
       </defs>
       <use xlink:href="#DejaVuSans-30"/>
       <use xlink:href="#DejaVuSans-2e" transform="translate(63.623047 0)"/>
       <use xlink:href="#DejaVuSans-35" transform="translate(95.410156 0)"/>
      </g>
     </g>
    </g>
    <g id="text_14">
     <!-- Density -->
     <g transform="translate(33.016406 189.045469) rotate(-90) scale(0.18 -0.18)">
      <defs>
       <path id="DejaVuSans-44" d="M 1259 4147 
L 1259 519 
L 2022 519 
Q 2988 519 3436 956 
Q 3884 1394 3884 2338 
Q 3884 3275 3436 3711 
Q 2988 4147 2022 4147 
L 1259 4147 
z
M 628 4666 
L 1925 4666 
Q 3281 4666 3915 4102 
Q 4550 3538 4550 2338 
Q 4550 1131 3912 565 
Q 3275 0 1925 0 
L 628 0 
L 628 4666 
z
" transform="scale(0.015625)"/>
       <path id="DejaVuSans-73" d="M 2834 3397 
L 2834 2853 
Q 2591 2978 2328 3040 
Q 2066 3103 1784 3103 
Q 1356 3103 1142 2972 
Q 928 2841 928 2578 
Q 928 2378 1081 2264 
Q 1234 2150 1697 2047 
L 1894 2003 
Q 2506 1872 2764 1633 
Q 3022 1394 3022 966 
Q 3022 478 2636 193 
Q 2250 -91 1575 -91 
Q 1294 -91 989 -36 
Q 684 19 347 128 
L 347 722 
Q 666 556 975 473 
Q 1284 391 1588 391 
Q 1994 391 2212 530 
Q 2431 669 2431 922 
Q 2431 1156 2273 1281 
Q 2116 1406 1581 1522 
L 1381 1569 
Q 847 1681 609 1914 
Q 372 2147 372 2553 
Q 372 3047 722 3315 
Q 1072 3584 1716 3584 
Q 2034 3584 2315 3537 
Q 2597 3491 2834 3397 
z
" transform="scale(0.015625)"/>
       <path id="DejaVuSans-79" d="M 2059 -325 
Q 1816 -950 1584 -1140 
Q 1353 -1331 966 -1331 
L 506 -1331 
L 506 -850 
L 844 -850 
Q 1081 -850 1212 -737 
Q 1344 -625 1503 -206 
L 1606 56 
L 191 3500 
L 800 3500 
L 1894 763 
L 2988 3500 
L 3597 3500 
L 2059 -325 
z
" transform="scale(0.015625)"/>
      </defs>
      <use xlink:href="#DejaVuSans-44"/>
      <use xlink:href="#DejaVuSans-65" transform="translate(77.001953 0)"/>
      <use xlink:href="#DejaVuSans-6e" transform="translate(138.525391 0)"/>
      <use xlink:href="#DejaVuSans-73" transform="translate(201.904297 0)"/>
      <use xlink:href="#DejaVuSans-69" transform="translate(254.003906 0)"/>
      <use xlink:href="#DejaVuSans-74" transform="translate(281.787109 0)"/>
      <use xlink:href="#DejaVuSans-79" transform="translate(320.996094 0)"/>
     </g>
    </g>
   </g>
   <g id="patch_183">
    <path d="M 79.5 290.22 
L 79.5 19.44 
" style="fill: none; stroke: #000000; stroke-width: 1.875; stroke-linejoin: miter; stroke-linecap: square"/>
   </g>
   <g id="patch_184">
    <path d="M 79.5 290.22 
L 484.56 290.22 
" style="fill: none; stroke: #000000; stroke-width: 1.875; stroke-linejoin: miter; stroke-linecap: square"/>
   </g>
   <g id="legend_1">
    <g id="patch_185">
     <path d="M 400.71 81.88125 
L 476.16 81.88125 
Q 478.56 81.88125 478.56 79.48125 
L 478.56 27.84 
Q 478.56 25.44 476.16 25.44 
L 400.71 25.44 
Q 398.31 25.44 398.31 27.84 
L 398.31 79.48125 
Q 398.31 81.88125 400.71 81.88125 
z
" style="fill: #ffffff; opacity: 0.8; stroke: #cccccc; stroke-width: 1.5; stroke-linejoin: miter"/>
    </g>
    <g id="patch_186">
     <path d="M 403.11 39.358125 
L 427.11 39.358125 
L 427.11 30.958125 
L 403.11 30.958125 
z
" style="fill: #4682b4; opacity: 0.5"/>
    </g>
    <g id="text_15">
     <!-- α=0.6 -->
     <g transform="translate(436.71 39.358125) scale(0.12 -0.12)">
      <defs>
       <path id="DejaVuSans-3b1" d="M 2644 1628 
L 2506 2350 
Q 2366 3091 1809 3091 
Q 1391 3091 1200 2747 
Q 959 2316 959 1747 
Q 959 1059 1194 731 
Q 1431 397 1809 397 
Q 2228 397 2453 1063 
L 2644 1628 
z
M 2966 2584 
L 3275 3500 
L 3788 3500 
L 3147 1603 
L 3272 919 
Q 3300 766 3409 638 
Q 3538 488 3638 488 
L 3913 488 
L 3913 0 
L 3569 0 
Q 3275 0 3013 263 
Q 2884 394 2831 669 
Q 2688 322 2394 50 
Q 2256 -78 1809 -78 
Q 1075 -78 719 397 
Q 353 888 353 1747 
Q 353 2666 750 3097 
Q 1191 3578 1809 3578 
Q 2781 3578 2966 2584 
z
" transform="scale(0.015625)"/>
       <path id="DejaVuSans-3d" d="M 678 2906 
L 4684 2906 
L 4684 2381 
L 678 2381 
L 678 2906 
z
M 678 1631 
L 4684 1631 
L 4684 1100 
L 678 1100 
L 678 1631 
z
" transform="scale(0.015625)"/>
       <path id="DejaVuSans-36" d="M 2113 2584 
Q 1688 2584 1439 2293 
Q 1191 2003 1191 1497 
Q 1191 994 1439 701 
Q 1688 409 2113 409 
Q 2538 409 2786 701 
Q 3034 994 3034 1497 
Q 3034 2003 2786 2293 
Q 2538 2584 2113 2584 
z
M 3366 4563 
L 3366 3988 
Q 3128 4100 2886 4159 
Q 2644 4219 2406 4219 
Q 1781 4219 1451 3797 
Q 1122 3375 1075 2522 
Q 1259 2794 1537 2939 
Q 1816 3084 2150 3084 
Q 2853 3084 3261 2657 
Q 3669 2231 3669 1497 
Q 3669 778 3244 343 
Q 2819 -91 2113 -91 
Q 1303 -91 875 529 
Q 447 1150 447 2328 
Q 447 3434 972 4092 
Q 1497 4750 2381 4750 
Q 2619 4750 2861 4703 
Q 3103 4656 3366 4563 
z
" transform="scale(0.015625)"/>
      </defs>
      <use xlink:href="#DejaVuSans-3b1"/>
      <use xlink:href="#DejaVuSans-3d" transform="translate(65.917969 0)"/>
      <use xlink:href="#DejaVuSans-30" transform="translate(149.707031 0)"/>
      <use xlink:href="#DejaVuSans-2e" transform="translate(213.330078 0)"/>
      <use xlink:href="#DejaVuSans-36" transform="translate(245.117188 0)"/>
     </g>
    </g>
    <g id="patch_187">
     <path d="M 403.11 56.971875 
L 427.11 56.971875 
L 427.11 48.571875 
L 403.11 48.571875 
z
" style="fill: #ff8c00; opacity: 0.5"/>
    </g>
    <g id="text_16">
     <!-- α=0.3 -->
     <g transform="translate(436.71 56.971875) scale(0.12 -0.12)">
      <use xlink:href="#DejaVuSans-3b1"/>
      <use xlink:href="#DejaVuSans-3d" transform="translate(65.917969 0)"/>
      <use xlink:href="#DejaVuSans-30" transform="translate(149.707031 0)"/>
      <use xlink:href="#DejaVuSans-2e" transform="translate(213.330078 0)"/>
      <use xlink:href="#DejaVuSans-33" transform="translate(245.117188 0)"/>
     </g>
    </g>
    <g id="patch_188">
     <path d="M 403.11 74.585625 
L 427.11 74.585625 
L 427.11 66.185625 
L 403.11 66.185625 
z
" style="fill: #2e8b57; opacity: 0.5"/>
    </g>
    <g id="text_17">
     <!-- α=0.0 -->
     <g transform="translate(436.71 74.585625) scale(0.12 -0.12)">
      <use xlink:href="#DejaVuSans-3b1"/>
      <use xlink:href="#DejaVuSans-3d" transform="translate(65.917969 0)"/>
      <use xlink:href="#DejaVuSans-30" transform="translate(149.707031 0)"/>
      <use xlink:href="#DejaVuSans-2e" transform="translate(213.330078 0)"/>
      <use xlink:href="#DejaVuSans-30" transform="translate(245.117188 0)"/>
     </g>
    </g>
   </g>
  </g>
 </g>
 <defs>
  <clipPath id="pf2f96ffc6f">
   <rect x="79.5" y="19.44" width="405.06" height="270.78"/>
  </clipPath>
 </defs>
</svg>
