<?xml version="1.0" encoding="utf-8" standalone="no"?>
<!DOCTYPE svg PUBLIC "-//W3C//DTD SVG 1.1//EN"
  "http://www.w3.org/Graphics/SVG/1.1/DTD/svg11.dtd">
<svg xmlns:xlink="http://www.w3.org/1999/xlink" width="504pt" height="360pt" viewBox="0 0 504 360" xmlns="http://www.w3.org/2000/svg" version="1.1">
 <metadata>
  <rdf:RDF xmlns:dc="http://purl.org/dc/elements/1.1/" xmlns:cc="http://creativecommons.org/ns#" xmlns:rdf="http://www.w3.org/1999/02/22-rdf-syntax-ns#">
   <cc:Work>
    <dc:type rdf:resource="http://purl.org/dc/dcmitype/StillImage"/>
    <dc:date>2026-04-19T21:25:12.332386</dc:date>
    <dc:format>image/svg+xml</dc:format>
    <dc:creator>
     <cc:Agent>
      <dc:title>Matplotlib v3.10.8, https://matplotlib.org/</dc:title>
     </cc:Agent>
    </dc:creator>
   </cc:Work>
  </rdf:RDF>
 </metadata>
 <defs>
  <style type="text/css">*{stroke-linejoin: round; stroke-linecap: butt}</style>
 </defs>
 <g id="figure_1">
  <g id="patch_1">
   <path d="M 0 360 
L 504 360 
L 504 0 
L 0 0 
z
" style="fill: #ffffff"/>
  </g>
  <g id="axes_1">
   <g id="patch_2">
    <path d="M 79.5 290.22 
L 484.56 290.22 
L 484.56 19.44 
L 79.5 19.44 
z
" style="fill: #ffffff"/>
   </g>
   <g id="patch_3">
    <path d="M 79.5 290.22 
L 86.251 290.22 
L 86.251 272.71498 
L 79.5 272.71498 
z
" clip-path="url(#p1e7e707201)" style="fill: #4682b4; opacity: 0.5"/>
   </g>
   <g id="patch_4">
    <path d="M 86.251 290.22 
L 93.002001 290.22 
L 93.002001 270.121643 
L 86.251 270.121643 
z
" clip-path="url(#p1e7e707201)" style="fill: #4682b4; opacity: 0.5"/>
   </g>
   <g id="patch_5">
    <path d="M 93.002001 290.22 
L 99.753001 290.22 
L 99.753001 268.608864 
L 93.002001 268.608864 
z
" clip-path="url(#p1e7e707201)" style="fill: #4682b4; opacity: 0.5"/>
   </g>
   <g id="patch_6">
    <path d="M 99.753001 290.22 
L 106.504001 290.22 
L 106.504001 260.180521 
L 99.753001 260.180521 
z
" clip-path="url(#p1e7e707201)" style="fill: #4682b4; opacity: 0.5"/>
   </g>
   <g id="patch_7">
    <path d="M 106.504001 290.22 
L 113.255002 290.22 
L 113.255002 259.316075 
L 106.504001 259.316075 
z
" clip-path="url(#p1e7e707201)" style="fill: #4682b4; opacity: 0.5"/>
   </g>
   <g id="patch_8">
    <path d="M 113.255002 290.22 
L 120.006002 290.22 
L 120.006002 250.671621 
L 113.255002 250.671621 
z
" clip-path="url(#p1e7e707201)" style="fill: #4682b4; opacity: 0.5"/>
   </g>
   <g id="patch_9">
    <path d="M 120.006002 290.22 
L 126.757002 290.22 
L 126.757002 245.268837 
L 120.006002 245.268837 
z
" clip-path="url(#p1e7e707201)" style="fill: #4682b4; opacity: 0.5"/>
   </g>
   <g id="patch_10">
    <path d="M 126.757002 290.22 
L 133.508003 290.22 
L 133.508003 247.213839 
L 126.757002 247.213839 
z
" clip-path="url(#p1e7e707201)" style="fill: #4682b4; opacity: 0.5"/>
   </g>
   <g id="patch_11">
    <path d="M 133.508003 290.22 
L 140.259003 290.22 
L 140.259003 240.082164 
L 133.508003 240.082164 
z
" clip-path="url(#p1e7e707201)" style="fill: #4682b4; opacity: 0.5"/>
   </g>
   <g id="patch_12">
    <path d="M 140.259003 290.22 
L 147.010003 290.22 
L 147.010003 229.276596 
L 140.259003 229.276596 
z
" clip-path="url(#p1e7e707201)" style="fill: #4682b4; opacity: 0.5"/>
   </g>
   <g id="patch_13">
    <path d="M 147.010003 290.22 
L 153.761004 290.22 
L 153.761004 219.551585 
L 147.010003 219.551585 
z
" clip-path="url(#p1e7e707201)" style="fill: #4682b4; opacity: 0.5"/>
   </g>
   <g id="patch_14">
    <path d="M 153.761004 290.22 
L 160.512004 290.22 
L 160.512004 219.119362 
L 153.761004 219.119362 
z
" clip-path="url(#p1e7e707201)" style="fill: #4682b4; opacity: 0.5"/>
   </g>
   <g id="patch_15">
    <path d="M 160.512004 290.22 
L 167.263004 290.22 
L 167.263004 205.504346 
L 160.512004 205.504346 
z
" clip-path="url(#p1e7e707201)" style="fill: #4682b4; opacity: 0.5"/>
   </g>
   <g id="patch_16">
    <path d="M 167.263004 290.22 
L 174.014005 290.22 
L 174.014005 200.317674 
L 167.263004 200.317674 
z
" clip-path="url(#p1e7e707201)" style="fill: #4682b4; opacity: 0.5"/>
   </g>
   <g id="patch_17">
    <path d="M 174.014005 290.22 
L 180.765005 290.22 
L 180.765005 185.189879 
L 174.014005 185.189879 
z
" clip-path="url(#p1e7e707201)" style="fill: #4682b4; opacity: 0.5"/>
   </g>
   <g id="patch_18">
    <path d="M 180.765005 290.22 
L 187.515995 290.22 
L 187.515995 179.570813 
L 180.765005 179.570813 
z
" clip-path="url(#p1e7e707201)" style="fill: #4682b4; opacity: 0.5"/>
   </g>
   <g id="patch_19">
    <path d="M 187.515995 290.22 
L 194.266996 290.22 
L 194.266996 173.087642 
L 187.515995 173.087642 
z
" clip-path="url(#p1e7e707201)" style="fill: #4682b4; opacity: 0.5"/>
   </g>
   <g id="patch_20">
    <path d="M 194.266996 290.22 
L 201.017996 290.22 
L 201.017996 158.824293 
L 194.266996 158.824293 
z
" clip-path="url(#p1e7e707201)" style="fill: #4682b4; opacity: 0.5"/>
   </g>
   <g id="patch_21">
    <path d="M 201.017996 290.22 
L 207.769001 290.22 
L 207.769001 143.912721 
L 201.017996 143.912721 
z
" clip-path="url(#p1e7e707201)" style="fill: #4682b4; opacity: 0.5"/>
   </g>
   <g id="patch_22">
    <path d="M 207.769001 290.22 
L 214.520002 290.22 
L 214.520002 139.158159 
L 207.769001 139.158159 
z
" clip-path="url(#p1e7e707201)" style="fill: #4682b4; opacity: 0.5"/>
   </g>
   <g id="patch_23">
    <path d="M 214.520002 290.22 
L 221.271002 290.22 
L 221.271002 131.594261 
L 214.520002 131.594261 
z
" clip-path="url(#p1e7e707201)" style="fill: #4682b4; opacity: 0.5"/>
   </g>
   <g id="patch_24">
    <path d="M 221.271002 290.22 
L 228.022002 290.22 
L 228.022002 128.352591 
L 221.271002 128.352591 
z
" clip-path="url(#p1e7e707201)" style="fill: #4682b4; opacity: 0.5"/>
   </g>
   <g id="patch_25">
    <path d="M 228.022002 290.22 
L 234.772998 290.22 
L 234.772998 117.330779 
L 228.022002 117.330779 
z
" clip-path="url(#p1e7e707201)" style="fill: #4682b4; opacity: 0.5"/>
   </g>
   <g id="patch_26">
    <path d="M 234.772998 290.22 
L 241.523998 290.22 
L 241.523998 107.822011 
L 234.772998 107.822011 
z
" clip-path="url(#p1e7e707201)" style="fill: #4682b4; opacity: 0.5"/>
   </g>
   <g id="patch_27">
    <path d="M 241.523998 290.22 
L 248.275001 290.22 
L 248.275001 98.961519 
L 241.523998 98.961519 
z
" clip-path="url(#p1e7e707201)" style="fill: #4682b4; opacity: 0.5"/>
   </g>
   <g id="patch_28">
    <path d="M 248.275001 290.22 
L 255.026001 290.22 
L 255.026001 102.635339 
L 248.275001 102.635339 
z
" clip-path="url(#p1e7e707201)" style="fill: #4682b4; opacity: 0.5"/>
   </g>
   <g id="patch_29">
    <path d="M 255.026001 290.22 
L 261.776999 290.22 
L 261.776999 96.151923 
L 255.026001 96.151923 
z
" clip-path="url(#p1e7e707201)" style="fill: #4682b4; opacity: 0.5"/>
   </g>
   <g id="patch_30">
    <path d="M 261.776999 290.22 
L 268.528001 290.22 
L 268.528001 89.884807 
L 261.776999 89.884807 
z
" clip-path="url(#p1e7e707201)" style="fill: #4682b4; opacity: 0.5"/>
   </g>
   <g id="patch_31">
    <path d="M 268.528001 290.22 
L 275.279 290.22 
L 275.279 84.698056 
L 268.528001 84.698056 
z
" clip-path="url(#p1e7e707201)" style="fill: #4682b4; opacity: 0.5"/>
   </g>
   <g id="patch_32">
    <path d="M 275.279 290.22 
L 282.03 290.22 
L 282.03 84.914207 
L 275.279 84.914207 
z
" clip-path="url(#p1e7e707201)" style="fill: #4682b4; opacity: 0.5"/>
   </g>
   <g id="patch_33">
    <path d="M 282.03 290.22 
L 288.781 290.22 
L 288.781 77.134178 
L 282.03 77.134178 
z
" clip-path="url(#p1e7e707201)" style="fill: #4682b4; opacity: 0.5"/>
   </g>
   <g id="patch_34">
    <path d="M 288.781 290.22 
L 295.532 290.22 
L 295.532 88.371989 
L 288.781 88.371989 
z
" clip-path="url(#p1e7e707201)" style="fill: #4682b4; opacity: 0.5"/>
   </g>
   <g id="patch_35">
    <path d="M 295.532 290.22 
L 302.283 290.22 
L 302.283 90.965306 
L 295.532 90.965306 
z
" clip-path="url(#p1e7e707201)" style="fill: #4682b4; opacity: 0.5"/>
   </g>
   <g id="patch_36">
    <path d="M 302.283 290.22 
L 309.034 290.22 
L 309.034 78.646978 
L 302.283 78.646978 
z
" clip-path="url(#p1e7e707201)" style="fill: #4682b4; opacity: 0.5"/>
   </g>
   <g id="patch_37">
    <path d="M 309.034 290.22 
L 315.784999 290.22 
L 315.784999 89.020284 
L 309.034 89.020284 
z
" clip-path="url(#p1e7e707201)" style="fill: #4682b4; opacity: 0.5"/>
   </g>
   <g id="patch_38">
    <path d="M 315.784999 290.22 
L 322.535999 290.22 
L 322.535999 94.85533 
L 315.784999 94.85533 
z
" clip-path="url(#p1e7e707201)" style="fill: #4682b4; opacity: 0.5"/>
   </g>
   <g id="patch_39">
    <path d="M 322.535999 290.22 
L 329.287 290.22 
L 329.287 111.279793 
L 322.535999 111.279793 
z
" clip-path="url(#p1e7e707201)" style="fill: #4682b4; opacity: 0.5"/>
   </g>
   <g id="patch_40">
    <path d="M 329.287 290.22 
L 336.037998 290.22 
L 336.037998 101.554709 
L 329.287 101.554709 
z
" clip-path="url(#p1e7e707201)" style="fill: #4682b4; opacity: 0.5"/>
   </g>
   <g id="patch_41">
    <path d="M 336.037998 290.22 
L 342.788998 290.22 
L 342.788998 112.36035 
L 336.037998 112.36035 
z
" clip-path="url(#p1e7e707201)" style="fill: #4682b4; opacity: 0.5"/>
   </g>
   <g id="patch_42">
    <path d="M 342.788998 290.22 
L 349.539998 290.22 
L 349.539998 131.810372 
L 342.788998 131.810372 
z
" clip-path="url(#p1e7e707201)" style="fill: #4682b4; opacity: 0.5"/>
   </g>
   <g id="patch_43">
    <path d="M 349.539998 290.22 
L 356.290999 290.22 
L 356.290999 138.509825 
L 349.539998 138.509825 
z
" clip-path="url(#p1e7e707201)" style="fill: #4682b4; opacity: 0.5"/>
   </g>
   <g id="patch_44">
    <path d="M 356.290999 290.22 
L 363.041999 290.22 
L 363.041999 146.938168 
L 356.290999 146.938168 
z
" clip-path="url(#p1e7e707201)" style="fill: #4682b4; opacity: 0.5"/>
   </g>
   <g id="patch_45">
    <path d="M 363.041999 290.22 
L 369.792999 290.22 
L 369.792999 157.311513 
L 363.041999 157.311513 
z
" clip-path="url(#p1e7e707201)" style="fill: #4682b4; opacity: 0.5"/>
   </g>
   <g id="patch_46">
    <path d="M 369.792999 290.22 
L 376.544005 290.22 
L 376.544005 163.362728 
L 369.792999 163.362728 
z
" clip-path="url(#p1e7e707201)" style="fill: #4682b4; opacity: 0.5"/>
   </g>
   <g id="patch_47">
    <path d="M 376.544005 290.22 
L 383.294995 290.22 
L 383.294995 173.735798 
L 376.544005 173.735798 
z
" clip-path="url(#p1e7e707201)" style="fill: #4682b4; opacity: 0.5"/>
   </g>
   <g id="patch_48">
    <path d="M 383.294995 290.22 
L 390.045995 290.22 
L 390.045995 178.058204 
L 383.294995 178.058204 
z
" clip-path="url(#p1e7e707201)" style="fill: #4682b4; opacity: 0.5"/>
   </g>
   <g id="patch_49">
    <path d="M 390.045995 290.22 
L 396.796996 290.22 
L 396.796996 195.563224 
L 390.045995 195.563224 
z
" clip-path="url(#p1e7e707201)" style="fill: #4682b4; opacity: 0.5"/>
   </g>
   <g id="patch_50">
    <path d="M 396.796996 290.22 
L 403.547996 290.22 
L 403.547996 204.42379 
L 396.796996 204.42379 
z
" clip-path="url(#p1e7e707201)" style="fill: #4682b4; opacity: 0.5"/>
   </g>
   <g id="patch_51">
    <path d="M 403.547996 290.22 
L 410.298996 290.22 
L 410.298996 208.529906 
L 403.547996 208.529906 
z
" clip-path="url(#p1e7e707201)" style="fill: #4682b4; opacity: 0.5"/>
   </g>
   <g id="patch_52">
    <path d="M 410.298996 290.22 
L 417.049997 290.22 
L 417.049997 222.144921 
L 410.298996 222.144921 
z
" clip-path="url(#p1e7e707201)" style="fill: #4682b4; opacity: 0.5"/>
   </g>
   <g id="patch_53">
    <path d="M 417.049997 290.22 
L 423.800997 290.22 
L 423.800997 226.251037 
L 417.049997 226.251037 
z
" clip-path="url(#p1e7e707201)" style="fill: #4682b4; opacity: 0.5"/>
   </g>
   <g id="patch_54">
    <path d="M 423.800997 290.22 
L 430.551997 290.22 
L 430.551997 231.43771 
L 423.800997 231.43771 
z
" clip-path="url(#p1e7e707201)" style="fill: #4682b4; opacity: 0.5"/>
   </g>
   <g id="patch_55">
    <path d="M 430.551997 290.22 
L 437.302998 290.22 
L 437.302998 242.675501 
L 430.551997 242.675501 
z
" clip-path="url(#p1e7e707201)" style="fill: #4682b4; opacity: 0.5"/>
   </g>
   <g id="patch_56">
    <path d="M 437.302998 290.22 
L 444.053998 290.22 
L 444.053998 240.298276 
L 437.302998 240.298276 
z
" clip-path="url(#p1e7e707201)" style="fill: #4682b4; opacity: 0.5"/>
   </g>
   <g id="patch_57">
    <path d="M 444.053998 290.22 
L 450.804998 290.22 
L 450.804998 254.561625 
L 444.053998 254.561625 
z
" clip-path="url(#p1e7e707201)" style="fill: #4682b4; opacity: 0.5"/>
   </g>
   <g id="patch_58">
    <path d="M 450.804998 290.22 
L 457.555999 290.22 
L 457.555999 256.074405 
L 450.804998 256.074405 
z
" clip-path="url(#p1e7e707201)" style="fill: #4682b4; opacity: 0.5"/>
   </g>
   <g id="patch_59">
    <path d="M 457.555999 290.22 
L 464.306999 290.22 
L 464.306999 257.803296 
L 457.555999 257.803296 
z
" clip-path="url(#p1e7e707201)" style="fill: #4682b4; opacity: 0.5"/>
   </g>
   <g id="patch_60">
    <path d="M 464.306999 290.22 
L 471.057999 290.22 
L 471.057999 266.44775 
L 464.306999 266.44775 
z
" clip-path="url(#p1e7e707201)" style="fill: #4682b4; opacity: 0.5"/>
   </g>
   <g id="patch_61">
    <path d="M 471.057999 290.22 
L 477.809 290.22 
L 477.809 266.663862 
L 471.057999 266.663862 
z
" clip-path="url(#p1e7e707201)" style="fill: #4682b4; opacity: 0.5"/>
   </g>
   <g id="patch_62">
    <path d="M 477.809 290.22 
L 484.56 290.22 
L 484.56 266.879973 
L 477.809 266.879973 
z
" clip-path="url(#p1e7e707201)" style="fill: #4682b4; opacity: 0.5"/>
   </g>
   <g id="patch_63">
    <path d="M 79.5 290.22 
L 86.251 290.22 
L 86.251 278.287144 
L 79.5 278.287144 
z
" clip-path="url(#p1e7e707201)" style="fill: #ff8c00; opacity: 0.5"/>
   </g>
   <g id="patch_64">
    <path d="M 86.251 290.22 
L 93.002001 290.22 
L 93.002001 275.090843 
L 86.251 275.090843 
z
" clip-path="url(#p1e7e707201)" style="fill: #ff8c00; opacity: 0.5"/>
   </g>
   <g id="patch_65">
    <path d="M 93.002001 290.22 
L 99.753001 290.22 
L 99.753001 271.681455 
L 93.002001 271.681455 
z
" clip-path="url(#p1e7e707201)" style="fill: #ff8c00; opacity: 0.5"/>
   </g>
   <g id="patch_66">
    <path d="M 99.753001 290.22 
L 106.504001 290.22 
L 106.504001 269.763675 
L 99.753001 269.763675 
z
" clip-path="url(#p1e7e707201)" style="fill: #ff8c00; opacity: 0.5"/>
   </g>
   <g id="patch_67">
    <path d="M 106.504001 290.22 
L 113.255002 290.22 
L 113.255002 263.58416 
L 106.504001 263.58416 
z
" clip-path="url(#p1e7e707201)" style="fill: #ff8c00; opacity: 0.5"/>
   </g>
   <g id="patch_68">
    <path d="M 113.255002 290.22 
L 120.006002 290.22 
L 120.006002 259.535512 
L 113.255002 259.535512 
z
" clip-path="url(#p1e7e707201)" style="fill: #ff8c00; opacity: 0.5"/>
   </g>
   <g id="patch_69">
    <path d="M 120.006002 290.22 
L 126.757002 290.22 
L 126.757002 253.142911 
L 120.006002 253.142911 
z
" clip-path="url(#p1e7e707201)" style="fill: #ff8c00; opacity: 0.5"/>
   </g>
   <g id="patch_70">
    <path d="M 126.757002 290.22 
L 133.508003 290.22 
L 133.508003 248.66809 
L 126.757002 248.66809 
z
" clip-path="url(#p1e7e707201)" style="fill: #ff8c00; opacity: 0.5"/>
   </g>
   <g id="patch_71">
    <path d="M 133.508003 290.22 
L 140.259003 290.22 
L 140.259003 243.127835 
L 133.508003 243.127835 
z
" clip-path="url(#p1e7e707201)" style="fill: #ff8c00; opacity: 0.5"/>
   </g>
   <g id="patch_72">
    <path d="M 140.259003 290.22 
L 147.010003 290.22 
L 147.010003 236.735234 
L 140.259003 236.735234 
z
" clip-path="url(#p1e7e707201)" style="fill: #ff8c00; opacity: 0.5"/>
   </g>
   <g id="patch_73">
    <path d="M 147.010003 290.22 
L 153.761004 290.22 
L 153.761004 221.819163 
L 147.010003 221.819163 
z
" clip-path="url(#p1e7e707201)" style="fill: #ff8c00; opacity: 0.5"/>
   </g>
   <g id="patch_74">
    <path d="M 153.761004 290.22 
L 160.512004 290.22 
L 160.512004 222.67151 
L 153.761004 222.67151 
z
" clip-path="url(#p1e7e707201)" style="fill: #ff8c00; opacity: 0.5"/>
   </g>
   <g id="patch_75">
    <path d="M 160.512004 290.22 
L 167.263004 290.22 
L 167.263004 208.607787 
L 160.512004 208.607787 
z
" clip-path="url(#p1e7e707201)" style="fill: #ff8c00; opacity: 0.5"/>
   </g>
   <g id="patch_76">
    <path d="M 167.263004 290.22 
L 174.014005 290.22 
L 174.014005 199.445058 
L 167.263004 199.445058 
z
" clip-path="url(#p1e7e707201)" style="fill: #ff8c00; opacity: 0.5"/>
   </g>
   <g id="patch_77">
    <path d="M 174.014005 290.22 
L 180.765005 290.22 
L 180.765005 179.201819 
L 174.014005 179.201819 
z
" clip-path="url(#p1e7e707201)" style="fill: #ff8c00; opacity: 0.5"/>
   </g>
   <g id="patch_78">
    <path d="M 180.765005 290.22 
L 187.515995 290.22 
L 187.515995 175.792256 
L 180.765005 175.792256 
z
" clip-path="url(#p1e7e707201)" style="fill: #ff8c00; opacity: 0.5"/>
   </g>
   <g id="patch_79">
    <path d="M 187.515995 290.22 
L 194.266996 290.22 
L 194.266996 162.154882 
L 187.515995 162.154882 
z
" clip-path="url(#p1e7e707201)" style="fill: #ff8c00; opacity: 0.5"/>
   </g>
   <g id="patch_80">
    <path d="M 194.266996 290.22 
L 201.017996 290.22 
L 201.017996 141.698557 
L 194.266996 141.698557 
z
" clip-path="url(#p1e7e707201)" style="fill: #ff8c00; opacity: 0.5"/>
   </g>
   <g id="patch_81">
    <path d="M 201.017996 290.22 
L 207.769001 290.22 
L 207.769001 139.141632 
L 201.017996 139.141632 
z
" clip-path="url(#p1e7e707201)" style="fill: #ff8c00; opacity: 0.5"/>
   </g>
   <g id="patch_82">
    <path d="M 207.769001 290.22 
L 214.520002 290.22 
L 214.520002 116.554324 
L 207.769001 116.554324 
z
" clip-path="url(#p1e7e707201)" style="fill: #ff8c00; opacity: 0.5"/>
   </g>
   <g id="patch_83">
    <path d="M 214.520002 290.22 
L 221.271002 290.22 
L 221.271002 115.915064 
L 214.520002 115.915064 
z
" clip-path="url(#p1e7e707201)" style="fill: #ff8c00; opacity: 0.5"/>
   </g>
   <g id="patch_84">
    <path d="M 221.271002 290.22 
L 228.022002 290.22 
L 228.022002 89.492311 
L 221.271002 89.492311 
z
" clip-path="url(#p1e7e707201)" style="fill: #ff8c00; opacity: 0.5"/>
   </g>
   <g id="patch_85">
    <path d="M 228.022002 290.22 
L 234.772998 290.22 
L 234.772998 96.950198 
L 228.022002 96.950198 
z
" clip-path="url(#p1e7e707201)" style="fill: #ff8c00; opacity: 0.5"/>
   </g>
   <g id="patch_86">
    <path d="M 234.772998 290.22 
L 241.523998 290.22 
L 241.523998 87.148357 
L 234.772998 87.148357 
z
" clip-path="url(#p1e7e707201)" style="fill: #ff8c00; opacity: 0.5"/>
   </g>
   <g id="patch_87">
    <path d="M 241.523998 290.22 
L 248.275001 290.22 
L 248.275001 63.282731 
L 241.523998 63.282731 
z
" clip-path="url(#p1e7e707201)" style="fill: #ff8c00; opacity: 0.5"/>
   </g>
   <g id="patch_88">
    <path d="M 248.275001 290.22 
L 255.026001 290.22 
L 255.026001 64.774251 
L 248.275001 64.774251 
z
" clip-path="url(#p1e7e707201)" style="fill: #ff8c00; opacity: 0.5"/>
   </g>
   <g id="patch_89">
    <path d="M 255.026001 290.22 
L 261.776999 290.22 
L 261.776999 62.217123 
L 255.026001 62.217123 
z
" clip-path="url(#p1e7e707201)" style="fill: #ff8c00; opacity: 0.5"/>
   </g>
   <g id="patch_90">
    <path d="M 261.776999 290.22 
L 268.528001 290.22 
L 268.528001 56.677001 
L 261.776999 56.677001 
z
" clip-path="url(#p1e7e707201)" style="fill: #ff8c00; opacity: 0.5"/>
   </g>
   <g id="patch_91">
    <path d="M 268.528001 290.22 
L 275.279 290.22 
L 275.279 54.75913 
L 268.528001 54.75913 
z
" clip-path="url(#p1e7e707201)" style="fill: #ff8c00; opacity: 0.5"/>
   </g>
   <g id="patch_92">
    <path d="M 275.279 290.22 
L 282.03 290.22 
L 282.03 61.151777 
L 275.279 61.151777 
z
" clip-path="url(#p1e7e707201)" style="fill: #ff8c00; opacity: 0.5"/>
   </g>
   <g id="patch_93">
    <path d="M 282.03 290.22 
L 288.781 290.22 
L 288.781 62.856449 
L 282.03 62.856449 
z
" clip-path="url(#p1e7e707201)" style="fill: #ff8c00; opacity: 0.5"/>
   </g>
   <g id="patch_94">
    <path d="M 288.781 290.22 
L 295.532 290.22 
L 295.532 65.413512 
L 288.781 65.413512 
z
" clip-path="url(#p1e7e707201)" style="fill: #ff8c00; opacity: 0.5"/>
   </g>
   <g id="patch_95">
    <path d="M 295.532 290.22 
L 302.283 290.22 
L 302.283 61.364842 
L 295.532 61.364842 
z
" clip-path="url(#p1e7e707201)" style="fill: #ff8c00; opacity: 0.5"/>
   </g>
   <g id="patch_96">
    <path d="M 302.283 290.22 
L 309.034 290.22 
L 309.034 75.428587 
L 302.283 75.428587 
z
" clip-path="url(#p1e7e707201)" style="fill: #ff8c00; opacity: 0.5"/>
   </g>
   <g id="patch_97">
    <path d="M 309.034 290.22 
L 315.784999 290.22 
L 315.784999 83.099669 
L 309.034 83.099669 
z
" clip-path="url(#p1e7e707201)" style="fill: #ff8c00; opacity: 0.5"/>
   </g>
   <g id="patch_98">
    <path d="M 315.784999 290.22 
L 322.535999 290.22 
L 322.535999 89.705397 
L 315.784999 89.705397 
z
" clip-path="url(#p1e7e707201)" style="fill: #ff8c00; opacity: 0.5"/>
   </g>
   <g id="patch_99">
    <path d="M 322.535999 290.22 
L 329.287 290.22 
L 329.287 107.178508 
L 322.535999 107.178508 
z
" clip-path="url(#p1e7e707201)" style="fill: #ff8c00; opacity: 0.5"/>
   </g>
   <g id="patch_100">
    <path d="M 329.287 290.22 
L 336.037998 290.22 
L 336.037998 103.769049 
L 329.287 103.769049 
z
" clip-path="url(#p1e7e707201)" style="fill: #ff8c00; opacity: 0.5"/>
   </g>
   <g id="patch_101">
    <path d="M 336.037998 290.22 
L 342.788998 290.22 
L 342.788998 132.322741 
L 336.037998 132.322741 
z
" clip-path="url(#p1e7e707201)" style="fill: #ff8c00; opacity: 0.5"/>
   </g>
   <g id="patch_102">
    <path d="M 342.788998 290.22 
L 349.539998 290.22 
L 349.539998 124.225446 
L 342.788998 124.225446 
z
" clip-path="url(#p1e7e707201)" style="fill: #ff8c00; opacity: 0.5"/>
   </g>
   <g id="patch_103">
    <path d="M 349.539998 290.22 
L 356.290999 290.22 
L 356.290999 151.713633 
L 349.539998 151.713633 
z
" clip-path="url(#p1e7e707201)" style="fill: #ff8c00; opacity: 0.5"/>
   </g>
   <g id="patch_104">
    <path d="M 356.290999 290.22 
L 363.041999 290.22 
L 363.041999 156.827714 
L 356.290999 156.827714 
z
" clip-path="url(#p1e7e707201)" style="fill: #ff8c00; opacity: 0.5"/>
   </g>
   <g id="patch_105">
    <path d="M 363.041999 290.22 
L 369.792999 290.22 
L 369.792999 175.153172 
L 363.041999 175.153172 
z
" clip-path="url(#p1e7e707201)" style="fill: #ff8c00; opacity: 0.5"/>
   </g>
   <g id="patch_106">
    <path d="M 369.792999 290.22 
L 376.544005 290.22 
L 376.544005 181.119684 
L 369.792999 181.119684 
z
" clip-path="url(#p1e7e707201)" style="fill: #ff8c00; opacity: 0.5"/>
   </g>
   <g id="patch_107">
    <path d="M 376.544005 290.22 
L 383.294995 290.22 
L 383.294995 194.543916 
L 376.544005 194.543916 
z
" clip-path="url(#p1e7e707201)" style="fill: #ff8c00; opacity: 0.5"/>
   </g>
   <g id="patch_108">
    <path d="M 383.294995 290.22 
L 390.045995 290.22 
L 390.045995 205.624573 
L 383.294995 205.624573 
z
" clip-path="url(#p1e7e707201)" style="fill: #ff8c00; opacity: 0.5"/>
   </g>
   <g id="patch_109">
    <path d="M 390.045995 290.22 
L 396.796996 290.22 
L 396.796996 214.148041 
L 390.045995 214.148041 
z
" clip-path="url(#p1e7e707201)" style="fill: #ff8c00; opacity: 0.5"/>
   </g>
   <g id="patch_110">
    <path d="M 396.796996 290.22 
L 403.547996 290.22 
L 403.547996 223.736944 
L 396.796996 223.736944 
z
" clip-path="url(#p1e7e707201)" style="fill: #ff8c00; opacity: 0.5"/>
   </g>
   <g id="patch_111">
    <path d="M 403.547996 290.22 
L 410.298996 290.22 
L 410.298996 236.095973 
L 403.547996 236.095973 
z
" clip-path="url(#p1e7e707201)" style="fill: #ff8c00; opacity: 0.5"/>
   </g>
   <g id="patch_112">
    <path d="M 410.298996 290.22 
L 417.049997 290.22 
L 417.049997 237.161407 
L 410.298996 237.161407 
z
" clip-path="url(#p1e7e707201)" style="fill: #ff8c00; opacity: 0.5"/>
   </g>
   <g id="patch_113">
    <path d="M 417.049997 290.22 
L 423.800997 290.22 
L 423.800997 242.488575 
L 417.049997 242.488575 
z
" clip-path="url(#p1e7e707201)" style="fill: #ff8c00; opacity: 0.5"/>
   </g>
   <g id="patch_114">
    <path d="M 423.800997 290.22 
L 430.551997 290.22 
L 430.551997 254.634518 
L 423.800997 254.634518 
z
" clip-path="url(#p1e7e707201)" style="fill: #ff8c00; opacity: 0.5"/>
   </g>
   <g id="patch_115">
    <path d="M 430.551997 290.22 
L 437.302998 290.22 
L 437.302998 260.600946 
L 430.551997 260.600946 
z
" clip-path="url(#p1e7e707201)" style="fill: #ff8c00; opacity: 0.5"/>
   </g>
   <g id="patch_116">
    <path d="M 437.302998 290.22 
L 444.053998 290.22 
L 444.053998 263.58416 
L 437.302998 263.58416 
z
" clip-path="url(#p1e7e707201)" style="fill: #ff8c00; opacity: 0.5"/>
   </g>
   <g id="patch_117">
    <path d="M 444.053998 290.22 
L 450.804998 290.22 
L 450.804998 270.189848 
L 444.053998 270.189848 
z
" clip-path="url(#p1e7e707201)" style="fill: #ff8c00; opacity: 0.5"/>
   </g>
   <g id="patch_118">
    <path d="M 450.804998 290.22 
L 457.555999 290.22 
L 457.555999 272.959976 
L 450.804998 272.959976 
z
" clip-path="url(#p1e7e707201)" style="fill: #ff8c00; opacity: 0.5"/>
   </g>
   <g id="patch_119">
    <path d="M 457.555999 290.22 
L 464.306999 290.22 
L 464.306999 276.156277 
L 457.555999 276.156277 
z
" clip-path="url(#p1e7e707201)" style="fill: #ff8c00; opacity: 0.5"/>
   </g>
   <g id="patch_120">
    <path d="M 464.306999 290.22 
L 471.057999 290.22 
L 471.057999 277.22171 
L 464.306999 277.22171 
z
" clip-path="url(#p1e7e707201)" style="fill: #ff8c00; opacity: 0.5"/>
   </g>
   <g id="patch_121">
    <path d="M 471.057999 290.22 
L 477.809 290.22 
L 477.809 281.057271 
L 471.057999 281.057271 
z
" clip-path="url(#p1e7e707201)" style="fill: #ff8c00; opacity: 0.5"/>
   </g>
   <g id="patch_122">
    <path d="M 477.809 290.22 
L 484.56 290.22 
L 484.56 284.253572 
L 477.809 284.253572 
z
" clip-path="url(#p1e7e707201)" style="fill: #ff8c00; opacity: 0.5"/>
   </g>
   <g id="matplotlib.axis_1">
    <g id="xtick_1">
     <g id="line2d_1">
      <defs>
       <path id="m47e8b65179" d="M 0 0 
L 0 9 
" style="stroke: #000000; stroke-width: 1.875"/>
      </defs>
      <g>
       <use xlink:href="#m47e8b65179" x="114.614678" y="290.22" style="stroke: #000000; stroke-width: 1.875"/>
      </g>
     </g>
     <g id="text_1">
      <!-- −2 -->
      <g transform="translate(102.452373 315.257422) scale(0.165 -0.165)">
       <defs>
        <path id="DejaVuSans-2212" d="M 678 2272 
L 4684 2272 
L 4684 1741 
L 678 1741 
L 678 2272 
z
" transform="scale(0.015625)"/>
        <path id="DejaVuSans-32" d="M 1228 531 
L 3431 531 
L 3431 0 
L 469 0 
L 469 531 
Q 828 903 1448 1529 
Q 2069 2156 2228 2338 
Q 2531 2678 2651 2914 
Q 2772 3150 2772 3378 
Q 2772 3750 2511 3984 
Q 2250 4219 1831 4219 
Q 1534 4219 1204 4116 
Q 875 4013 500 3803 
L 500 4441 
Q 881 4594 1212 4672 
Q 1544 4750 1819 4750 
Q 2544 4750 2975 4387 
Q 3406 4025 3406 3419 
Q 3406 3131 3298 2873 
Q 3191 2616 2906 2266 
Q 2828 2175 2409 1742 
Q 1991 1309 1228 531 
z
" transform="scale(0.015625)"/>
       </defs>
       <use xlink:href="#DejaVuSans-2212"/>
       <use xlink:href="#DejaVuSans-32" transform="translate(83.789062 0)"/>
      </g>
     </g>
    </g>
    <g id="xtick_2">
     <g id="line2d_2">
      <g>
       <use xlink:href="#m47e8b65179" x="201.469603" y="290.22" style="stroke: #000000; stroke-width: 1.875"/>
      </g>
     </g>
     <g id="text_2">
      <!-- −1 -->
      <g transform="translate(189.307298 315.257422) scale(0.165 -0.165)">
       <defs>
        <path id="DejaVuSans-31" d="M 794 531 
L 1825 531 
L 1825 4091 
L 703 3866 
L 703 4441 
L 1819 4666 
L 2450 4666 
L 2450 531 
L 3481 531 
L 3481 0 
L 794 0 
L 794 531 
z
" transform="scale(0.015625)"/>
       </defs>
       <use xlink:href="#DejaVuSans-2212"/>
       <use xlink:href="#DejaVuSans-31" transform="translate(83.789062 0)"/>
      </g>
     </g>
    </g>
    <g id="xtick_3">
     <g id="line2d_3">
      <g>
       <use xlink:href="#m47e8b65179" x="288.324527" y="290.22" style="stroke: #000000; stroke-width: 1.875"/>
      </g>
     </g>
     <g id="text_3">
      <!-- 0 -->
      <g transform="translate(283.075465 315.257422) scale(0.165 -0.165)">
       <defs>
        <path id="DejaVuSans-30" d="M 2034 4250 
Q 1547 4250 1301 3770 
Q 1056 3291 1056 2328 
Q 1056 1369 1301 889 
Q 1547 409 2034 409 
Q 2525 409 2770 889 
Q 3016 1369 3016 2328 
Q 3016 3291 2770 3770 
Q 2525 4250 2034 4250 
z
M 2034 4750 
Q 2819 4750 3233 4129 
Q 3647 3509 3647 2328 
Q 3647 1150 3233 529 
Q 2819 -91 2034 -91 
Q 1250 -91 836 529 
Q 422 1150 422 2328 
Q 422 3509 836 4129 
Q 1250 4750 2034 4750 
z
" transform="scale(0.015625)"/>
       </defs>
       <use xlink:href="#DejaVuSans-30"/>
      </g>
     </g>
    </g>
    <g id="xtick_4">
     <g id="line2d_4">
      <g>
       <use xlink:href="#m47e8b65179" x="375.179452" y="290.22" style="stroke: #000000; stroke-width: 1.875"/>
      </g>
     </g>
     <g id="text_4">
      <!-- 1 -->
      <g transform="translate(369.93039 315.257422) scale(0.165 -0.165)">
       <use xlink:href="#DejaVuSans-31"/>
      </g>
     </g>
    </g>
    <g id="xtick_5">
     <g id="line2d_5">
      <g>
       <use xlink:href="#m47e8b65179" x="462.034377" y="290.22" style="stroke: #000000; stroke-width: 1.875"/>
      </g>
     </g>
     <g id="text_5">
      <!-- 2 -->
      <g transform="translate(456.785314 315.257422) scale(0.165 -0.165)">
       <use xlink:href="#DejaVuSans-32"/>
      </g>
     </g>
    </g>
    <g id="text_6">
     <!-- Membrane potential -->
     <g transform="translate(190.895156 336.366094) scale(0.18 -0.18)">
      <defs>
       <path id="DejaVuSans-4d" d="M 628 4666 
L 1569 4666 
L 2759 1491 
L 3956 4666 
L 4897 4666 
L 4897 0 
L 4281 0 
L 4281 4097 
L 3078 897 
L 2444 897 
L 1241 4097 
L 1241 0 
L 628 0 
L 628 4666 
z
" transform="scale(0.015625)"/>
       <path id="DejaVuSans-65" d="M 3597 1894 
L 3597 1613 
L 953 1613 
Q 991 1019 1311 708 
Q 1631 397 2203 397 
Q 2534 397 2845 478 
Q 3156 559 3463 722 
L 3463 178 
Q 3153 47 2828 -22 
Q 2503 -91 2169 -91 
Q 1331 -91 842 396 
Q 353 884 353 1716 
Q 353 2575 817 3079 
Q 1281 3584 2069 3584 
Q 2775 3584 3186 3129 
Q 3597 2675 3597 1894 
z
M 3022 2063 
Q 3016 2534 2758 2815 
Q 2500 3097 2075 3097 
Q 1594 3097 1305 2825 
Q 1016 2553 972 2059 
L 3022 2063 
z
" transform="scale(0.015625)"/>
       <path id="DejaVuSans-6d" d="M 3328 2828 
Q 3544 3216 3844 3400 
Q 4144 3584 4550 3584 
Q 5097 3584 5394 3201 
Q 5691 2819 5691 2113 
L 5691 0 
L 5113 0 
L 5113 2094 
Q 5113 2597 4934 2840 
Q 4756 3084 4391 3084 
Q 3944 3084 3684 2787 
Q 3425 2491 3425 1978 
L 3425 0 
L 2847 0 
L 2847 2094 
Q 2847 2600 2669 2842 
Q 2491 3084 2119 3084 
Q 1678 3084 1418 2786 
Q 1159 2488 1159 1978 
L 1159 0 
L 581 0 
L 581 3500 
L 1159 3500 
L 1159 2956 
Q 1356 3278 1631 3431 
Q 1906 3584 2284 3584 
Q 2666 3584 2933 3390 
Q 3200 3197 3328 2828 
z
" transform="scale(0.015625)"/>
       <path id="DejaVuSans-62" d="M 3116 1747 
Q 3116 2381 2855 2742 
Q 2594 3103 2138 3103 
Q 1681 3103 1420 2742 
Q 1159 2381 1159 1747 
Q 1159 1113 1420 752 
Q 1681 391 2138 391 
Q 2594 391 2855 752 
Q 3116 1113 3116 1747 
z
M 1159 2969 
Q 1341 3281 1617 3432 
Q 1894 3584 2278 3584 
Q 2916 3584 3314 3078 
Q 3713 2572 3713 1747 
Q 3713 922 3314 415 
Q 2916 -91 2278 -91 
Q 1894 -91 1617 61 
Q 1341 213 1159 525 
L 1159 0 
L 581 0 
L 581 4863 
L 1159 4863 
L 1159 2969 
z
" transform="scale(0.015625)"/>
       <path id="DejaVuSans-72" d="M 2631 2963 
Q 2534 3019 2420 3045 
Q 2306 3072 2169 3072 
Q 1681 3072 1420 2755 
Q 1159 2438 1159 1844 
L 1159 0 
L 581 0 
L 581 3500 
L 1159 3500 
L 1159 2956 
Q 1341 3275 1631 3429 
Q 1922 3584 2338 3584 
Q 2397 3584 2469 3576 
Q 2541 3569 2628 3553 
L 2631 2963 
z
" transform="scale(0.015625)"/>
       <path id="DejaVuSans-61" d="M 2194 1759 
Q 1497 1759 1228 1600 
Q 959 1441 959 1056 
Q 959 750 1161 570 
Q 1363 391 1709 391 
Q 2188 391 2477 730 
Q 2766 1069 2766 1631 
L 2766 1759 
L 2194 1759 
z
M 3341 1997 
L 3341 0 
L 2766 0 
L 2766 531 
Q 2569 213 2275 61 
Q 1981 -91 1556 -91 
Q 1019 -91 701 211 
Q 384 513 384 1019 
Q 384 1609 779 1909 
Q 1175 2209 1959 2209 
L 2766 2209 
L 2766 2266 
Q 2766 2663 2505 2880 
Q 2244 3097 1772 3097 
Q 1472 3097 1187 3025 
Q 903 2953 641 2809 
L 641 3341 
Q 956 3463 1253 3523 
Q 1550 3584 1831 3584 
Q 2591 3584 2966 3190 
Q 3341 2797 3341 1997 
z
" transform="scale(0.015625)"/>
       <path id="DejaVuSans-6e" d="M 3513 2113 
L 3513 0 
L 2938 0 
L 2938 2094 
Q 2938 2591 2744 2837 
Q 2550 3084 2163 3084 
Q 1697 3084 1428 2787 
Q 1159 2491 1159 1978 
L 1159 0 
L 581 0 
L 581 3500 
L 1159 3500 
L 1159 2956 
Q 1366 3272 1645 3428 
Q 1925 3584 2291 3584 
Q 2894 3584 3203 3211 
Q 3513 2838 3513 2113 
z
" transform="scale(0.015625)"/>
       <path id="DejaVuSans-20" transform="scale(0.015625)"/>
       <path id="DejaVuSans-70" d="M 1159 525 
L 1159 -1331 
L 581 -1331 
L 581 3500 
L 1159 3500 
L 1159 2969 
Q 1341 3281 1617 3432 
Q 1894 3584 2278 3584 
Q 2916 3584 3314 3078 
Q 3713 2572 3713 1747 
Q 3713 922 3314 415 
Q 2916 -91 2278 -91 
Q 1894 -91 1617 61 
Q 1341 213 1159 525 
z
M 3116 1747 
Q 3116 2381 2855 2742 
Q 2594 3103 2138 3103 
Q 1681 3103 1420 2742 
Q 1159 2381 1159 1747 
Q 1159 1113 1420 752 
Q 1681 391 2138 391 
Q 2594 391 2855 752 
Q 3116 1113 3116 1747 
z
" transform="scale(0.015625)"/>
       <path id="DejaVuSans-6f" d="M 1959 3097 
Q 1497 3097 1228 2736 
Q 959 2375 959 1747 
Q 959 1119 1226 758 
Q 1494 397 1959 397 
Q 2419 397 2687 759 
Q 2956 1122 2956 1747 
Q 2956 2369 2687 2733 
Q 2419 3097 1959 3097 
z
M 1959 3584 
Q 2709 3584 3137 3096 
Q 3566 2609 3566 1747 
Q 3566 888 3137 398 
Q 2709 -91 1959 -91 
Q 1206 -91 779 398 
Q 353 888 353 1747 
Q 353 2609 779 3096 
Q 1206 3584 1959 3584 
z
" transform="scale(0.015625)"/>
       <path id="DejaVuSans-74" d="M 1172 4494 
L 1172 3500 
L 2356 3500 
L 2356 3053 
L 1172 3053 
L 1172 1153 
Q 1172 725 1289 603 
Q 1406 481 1766 481 
L 2356 481 
L 2356 0 
L 1766 0 
Q 1100 0 847 248 
Q 594 497 594 1153 
L 594 3053 
L 172 3053 
L 172 3500 
L 594 3500 
L 594 4494 
L 1172 4494 
z
" transform="scale(0.015625)"/>
       <path id="DejaVuSans-69" d="M 603 3500 
L 1178 3500 
L 1178 0 
L 603 0 
L 603 3500 
z
M 603 4863 
L 1178 4863 
L 1178 4134 
L 603 4134 
L 603 4863 
z
" transform="scale(0.015625)"/>
       <path id="DejaVuSans-6c" d="M 603 4863 
L 1178 4863 
L 1178 0 
L 603 0 
L 603 4863 
z
" transform="scale(0.015625)"/>
      </defs>
      <use xlink:href="#DejaVuSans-4d"/>
      <use xlink:href="#DejaVuSans-65" transform="translate(86.279297 0)"/>
      <use xlink:href="#DejaVuSans-6d" transform="translate(147.802734 0)"/>
      <use xlink:href="#DejaVuSans-62" transform="translate(245.214844 0)"/>
      <use xlink:href="#DejaVuSans-72" transform="translate(308.691406 0)"/>
      <use xlink:href="#DejaVuSans-61" transform="translate(349.804688 0)"/>
      <use xlink:href="#DejaVuSans-6e" transform="translate(411.083984 0)"/>
      <use xlink:href="#DejaVuSans-65" transform="translate(474.462891 0)"/>
      <use xlink:href="#DejaVuSans-20" transform="translate(535.986328 0)"/>
      <use xlink:href="#DejaVuSans-70" transform="translate(567.773438 0)"/>
      <use xlink:href="#DejaVuSans-6f" transform="translate(631.25 0)"/>
      <use xlink:href="#DejaVuSans-74" transform="translate(692.431641 0)"/>
      <use xlink:href="#DejaVuSans-65" transform="translate(731.640625 0)"/>
      <use xlink:href="#DejaVuSans-6e" transform="translate(793.164062 0)"/>
      <use xlink:href="#DejaVuSans-74" transform="translate(856.542969 0)"/>
      <use xlink:href="#DejaVuSans-69" transform="translate(895.751953 0)"/>
      <use xlink:href="#DejaVuSans-61" transform="translate(923.535156 0)"/>
      <use xlink:href="#DejaVuSans-6c" transform="translate(984.814453 0)"/>
     </g>
    </g>
   </g>
   <g id="matplotlib.axis_2">
    <g id="ytick_1">
     <g id="line2d_6">
      <defs>
       <path id="m5bb45190e3" d="M 0 0 
L -9 0 
" style="stroke: #000000; stroke-width: 1.875"/>
      </defs>
      <g>
       <use xlink:href="#m5bb45190e3" x="79.5" y="290.22" style="stroke: #000000; stroke-width: 1.875"/>
      </g>
     </g>
     <g id="text_7">
      <!-- 0.0 -->
      <g transform="translate(40.759844 296.488711) scale(0.165 -0.165)">
       <defs>
        <path id="DejaVuSans-2e" d="M 684 794 
L 1344 794 
L 1344 0 
L 684 0 
L 684 794 
z
" transform="scale(0.015625)"/>
       </defs>
       <use xlink:href="#DejaVuSans-30"/>
       <use xlink:href="#DejaVuSans-2e" transform="translate(63.623047 0)"/>
       <use xlink:href="#DejaVuSans-30" transform="translate(95.410156 0)"/>
      </g>
     </g>
    </g>
    <g id="ytick_2">
     <g id="line2d_7">
      <g>
       <use xlink:href="#m5bb45190e3" x="79.5" y="237.913466" style="stroke: #000000; stroke-width: 1.875"/>
      </g>
     </g>
     <g id="text_8">
      <!-- 0.1 -->
      <g transform="translate(40.759844 244.182177) scale(0.165 -0.165)">
       <use xlink:href="#DejaVuSans-30"/>
       <use xlink:href="#DejaVuSans-2e" transform="translate(63.623047 0)"/>
       <use xlink:href="#DejaVuSans-31" transform="translate(95.410156 0)"/>
      </g>
     </g>
    </g>
    <g id="ytick_3">
     <g id="line2d_8">
      <g>
       <use xlink:href="#m5bb45190e3" x="79.5" y="185.606932" style="stroke: #000000; stroke-width: 1.875"/>
      </g>
     </g>
     <g id="text_9">
      <!-- 0.2 -->
      <g transform="translate(40.759844 191.875643) scale(0.165 -0.165)">
       <use xlink:href="#DejaVuSans-30"/>
       <use xlink:href="#DejaVuSans-2e" transform="translate(63.623047 0)"/>
       <use xlink:href="#DejaVuSans-32" transform="translate(95.410156 0)"/>
      </g>
     </g>
    </g>
    <g id="ytick_4">
     <g id="line2d_9">
      <g>
       <use xlink:href="#m5bb45190e3" x="79.5" y="133.300399" style="stroke: #000000; stroke-width: 1.875"/>
      </g>
     </g>
     <g id="text_10">
      <!-- 0.3 -->
      <g transform="translate(40.759844 139.56911) scale(0.165 -0.165)">
       <defs>
        <path id="DejaVuSans-33" d="M 2597 2516 
Q 3050 2419 3304 2112 
Q 3559 1806 3559 1356 
Q 3559 666 3084 287 
Q 2609 -91 1734 -91 
Q 1441 -91 1130 -33 
Q 819 25 488 141 
L 488 750 
Q 750 597 1062 519 
Q 1375 441 1716 441 
Q 2309 441 2620 675 
Q 2931 909 2931 1356 
Q 2931 1769 2642 2001 
Q 2353 2234 1838 2234 
L 1294 2234 
L 1294 2753 
L 1863 2753 
Q 2328 2753 2575 2939 
Q 2822 3125 2822 3475 
Q 2822 3834 2567 4026 
Q 2313 4219 1838 4219 
Q 1578 4219 1281 4162 
Q 984 4106 628 3988 
L 628 4550 
Q 988 4650 1302 4700 
Q 1616 4750 1894 4750 
Q 2613 4750 3031 4423 
Q 3450 4097 3450 3541 
Q 3450 3153 3228 2886 
Q 3006 2619 2597 2516 
z
" transform="scale(0.015625)"/>
       </defs>
       <use xlink:href="#DejaVuSans-30"/>
       <use xlink:href="#DejaVuSans-2e" transform="translate(63.623047 0)"/>
       <use xlink:href="#DejaVuSans-33" transform="translate(95.410156 0)"/>
      </g>
     </g>
    </g>
    <g id="ytick_5">
     <g id="line2d_10">
      <g>
       <use xlink:href="#m5bb45190e3" x="79.5" y="80.993865" style="stroke: #000000; stroke-width: 1.875"/>
      </g>
     </g>
     <g id="text_11">
      <!-- 0.4 -->
      <g transform="translate(40.759844 87.262576) scale(0.165 -0.165)">
       <defs>
        <path id="DejaVuSans-34" d="M 2419 4116 
L 825 1625 
L 2419 1625 
L 2419 4116 
z
M 2253 4666 
L 3047 4666 
L 3047 1625 
L 3713 1625 
L 3713 1100 
L 3047 1100 
L 3047 0 
L 2419 0 
L 2419 1100 
L 313 1100 
L 313 1709 
L 2253 4666 
z
" transform="scale(0.015625)"/>
       </defs>
       <use xlink:href="#DejaVuSans-30"/>
       <use xlink:href="#DejaVuSans-2e" transform="translate(63.623047 0)"/>
       <use xlink:href="#DejaVuSans-34" transform="translate(95.410156 0)"/>
      </g>
     </g>
    </g>
    <g id="ytick_6">
     <g id="line2d_11">
      <g>
       <use xlink:href="#m5bb45190e3" x="79.5" y="28.687331" style="stroke: #000000; stroke-width: 1.875"/>
      </g>
     </g>
     <g id="text_12">
      <!-- 0.5 -->
      <g transform="translate(40.759844 34.956042) scale(0.165 -0.165)">
       <defs>
        <path id="DejaVuSans-35" d="M 691 4666 
L 3169 4666 
L 3169 4134 
L 1269 4134 
L 1269 2991 
Q 1406 3038 1543 3061 
Q 1681 3084 1819 3084 
Q 2600 3084 3056 2656 
Q 3513 2228 3513 1497 
Q 3513 744 3044 326 
Q 2575 -91 1722 -91 
Q 1428 -91 1123 -41 
Q 819 9 494 109 
L 494 744 
Q 775 591 1075 516 
Q 1375 441 1709 441 
Q 2250 441 2565 725 
Q 2881 1009 2881 1497 
Q 2881 1984 2565 2268 
Q 2250 2553 1709 2553 
Q 1456 2553 1204 2497 
Q 953 2441 691 2322 
L 691 4666 
z
" transform="scale(0.015625)"/>
       </defs>
       <use xlink:href="#DejaVuSans-30"/>
       <use xlink:href="#DejaVuSans-2e" transform="translate(63.623047 0)"/>
       <use xlink:href="#DejaVuSans-35" transform="translate(95.410156 0)"/>
      </g>
     </g>
    </g>
    <g id="text_13">
     <!-- Density -->
     <g transform="translate(33.016406 189.045469) rotate(-90) scale(0.18 -0.18)">
      <defs>
       <path id="DejaVuSans-44" d="M 1259 4147 
L 1259 519 
L 2022 519 
Q 2988 519 3436 956 
Q 3884 1394 3884 2338 
Q 3884 3275 3436 3711 
Q 2988 4147 2022 4147 
L 1259 4147 
z
M 628 4666 
L 1925 4666 
Q 3281 4666 3915 4102 
Q 4550 3538 4550 2338 
Q 4550 1131 3912 565 
Q 3275 0 1925 0 
L 628 0 
L 628 4666 
z
" transform="scale(0.015625)"/>
       <path id="DejaVuSans-73" d="M 2834 3397 
L 2834 2853 
Q 2591 2978 2328 3040 
Q 2066 3103 1784 3103 
Q 1356 3103 1142 2972 
Q 928 2841 928 2578 
Q 928 2378 1081 2264 
Q 1234 2150 1697 2047 
L 1894 2003 
Q 2506 1872 2764 1633 
Q 3022 1394 3022 966 
Q 3022 478 2636 193 
Q 2250 -91 1575 -91 
Q 1294 -91 989 -36 
Q 684 19 347 128 
L 347 722 
Q 666 556 975 473 
Q 1284 391 1588 391 
Q 1994 391 2212 530 
Q 2431 669 2431 922 
Q 2431 1156 2273 1281 
Q 2116 1406 1581 1522 
L 1381 1569 
Q 847 1681 609 1914 
Q 372 2147 372 2553 
Q 372 3047 722 3315 
Q 1072 3584 1716 3584 
Q 2034 3584 2315 3537 
Q 2597 3491 2834 3397 
z
" transform="scale(0.015625)"/>
       <path id="DejaVuSans-79" d="M 2059 -325 
Q 1816 -950 1584 -1140 
Q 1353 -1331 966 -1331 
L 506 -1331 
L 506 -850 
L 844 -850 
Q 1081 -850 1212 -737 
Q 1344 -625 1503 -206 
L 1606 56 
L 191 3500 
L 800 3500 
L 1894 763 
L 2988 3500 
L 3597 3500 
L 2059 -325 
z
" transform="scale(0.015625)"/>
      </defs>
      <use xlink:href="#DejaVuSans-44"/>
      <use xlink:href="#DejaVuSans-65" transform="translate(77.001953 0)"/>
      <use xlink:href="#DejaVuSans-6e" transform="translate(138.525391 0)"/>
      <use xlink:href="#DejaVuSans-73" transform="translate(201.904297 0)"/>
      <use xlink:href="#DejaVuSans-69" transform="translate(254.003906 0)"/>
      <use xlink:href="#DejaVuSans-74" transform="translate(281.787109 0)"/>
      <use xlink:href="#DejaVuSans-79" transform="translate(320.996094 0)"/>
     </g>
    </g>
   </g>
   <g id="patch_123">
    <path d="M 79.5 290.22 
L 79.5 19.44 
" style="fill: none; stroke: #000000; stroke-width: 1.875; stroke-linejoin: miter; stroke-linecap: square"/>
   </g>
   <g id="patch_124">
    <path d="M 79.5 290.22 
L 484.56 290.22 
" style="fill: none; stroke: #000000; stroke-width: 1.875; stroke-linejoin: miter; stroke-linecap: square"/>
   </g>
   <g id="text_14">
    <!-- mean: -0.045 -->
    <g style="fill: #4682b4" transform="translate(377.1325 135.88675) scale(0.16 -0.16)">
     <defs>
      <path id="DejaVuSans-3a" d="M 750 794 
L 1409 794 
L 1409 0 
L 750 0 
L 750 794 
z
M 750 3309 
L 1409 3309 
L 1409 2516 
L 750 2516 
L 750 3309 
z
" transform="scale(0.015625)"/>
      <path id="DejaVuSans-2d" d="M 313 2009 
L 1997 2009 
L 1997 1497 
L 313 1497 
L 313 2009 
z
" transform="scale(0.015625)"/>
     </defs>
     <use xlink:href="#DejaVuSans-6d"/>
     <use xlink:href="#DejaVuSans-65" transform="translate(97.412109 0)"/>
     <use xlink:href="#DejaVuSans-61" transform="translate(158.935547 0)"/>
     <use xlink:href="#DejaVuSans-6e" transform="translate(220.214844 0)"/>
     <use xlink:href="#DejaVuSans-3a" transform="translate(283.59375 0)"/>
     <use xlink:href="#DejaVuSans-20" transform="translate(317.285156 0)"/>
     <use xlink:href="#DejaVuSans-2d" transform="translate(349.072266 0)"/>
     <use xlink:href="#DejaVuSans-30" transform="translate(385.15625 0)"/>
     <use xlink:href="#DejaVuSans-2e" transform="translate(448.779297 0)"/>
     <use xlink:href="#DejaVuSans-30" transform="translate(480.566406 0)"/>
     <use xlink:href="#DejaVuSans-34" transform="translate(544.189453 0)"/>
     <use xlink:href="#DejaVuSans-35" transform="translate(607.8125 0)"/>
    </g>
    <!-- var: 1.093 -->
    <g style="fill: #4682b4" transform="translate(402.7075 153.80325) scale(0.16 -0.16)">
     <defs>
      <path id="DejaVuSans-76" d="M 191 3500 
L 800 3500 
L 1894 563 
L 2988 3500 
L 3597 3500 
L 2284 0 
L 1503 0 
L 191 3500 
z
" transform="scale(0.015625)"/>
      <path id="DejaVuSans-39" d="M 703 97 
L 703 672 
Q 941 559 1184 500 
Q 1428 441 1663 441 
Q 2288 441 2617 861 
Q 2947 1281 2994 2138 
Q 2813 1869 2534 1725 
Q 2256 1581 1919 1581 
Q 1219 1581 811 2004 
Q 403 2428 403 3163 
Q 403 3881 828 4315 
Q 1253 4750 1959 4750 
Q 2769 4750 3195 4129 
Q 3622 3509 3622 2328 
Q 3622 1225 3098 567 
Q 2575 -91 1691 -91 
Q 1453 -91 1209 -44 
Q 966 3 703 97 
z
M 1959 2075 
Q 2384 2075 2632 2365 
Q 2881 2656 2881 3163 
Q 2881 3666 2632 3958 
Q 2384 4250 1959 4250 
Q 1534 4250 1286 3958 
Q 1038 3666 1038 3163 
Q 1038 2656 1286 2365 
Q 1534 2075 1959 2075 
z
" transform="scale(0.015625)"/>
     </defs>
     <use xlink:href="#DejaVuSans-76"/>
     <use xlink:href="#DejaVuSans-61" transform="translate(59.179688 0)"/>
     <use xlink:href="#DejaVuSans-72" transform="translate(120.458984 0)"/>
     <use xlink:href="#DejaVuSans-3a" transform="translate(159.822266 0)"/>
     <use xlink:href="#DejaVuSans-20" transform="translate(193.513672 0)"/>
     <use xlink:href="#DejaVuSans-31" transform="translate(225.300781 0)"/>
     <use xlink:href="#DejaVuSans-2e" transform="translate(288.923828 0)"/>
     <use xlink:href="#DejaVuSans-30" transform="translate(320.710938 0)"/>
     <use xlink:href="#DejaVuSans-39" transform="translate(384.333984 0)"/>
     <use xlink:href="#DejaVuSans-33" transform="translate(447.957031 0)"/>
    </g>
   </g>
   <g id="text_15">
    <!-- mean: -0.148 -->
    <g style="fill: #ff8c00" transform="translate(86.7 135.88675) scale(0.16 -0.16)">
     <defs>
      <path id="DejaVuSans-38" d="M 2034 2216 
Q 1584 2216 1326 1975 
Q 1069 1734 1069 1313 
Q 1069 891 1326 650 
Q 1584 409 2034 409 
Q 2484 409 2743 651 
Q 3003 894 3003 1313 
Q 3003 1734 2745 1975 
Q 2488 2216 2034 2216 
z
M 1403 2484 
Q 997 2584 770 2862 
Q 544 3141 544 3541 
Q 544 4100 942 4425 
Q 1341 4750 2034 4750 
Q 2731 4750 3128 4425 
Q 3525 4100 3525 3541 
Q 3525 3141 3298 2862 
Q 3072 2584 2669 2484 
Q 3125 2378 3379 2068 
Q 3634 1759 3634 1313 
Q 3634 634 3220 271 
Q 2806 -91 2034 -91 
Q 1263 -91 848 271 
Q 434 634 434 1313 
Q 434 1759 690 2068 
Q 947 2378 1403 2484 
z
M 1172 3481 
Q 1172 3119 1398 2916 
Q 1625 2713 2034 2713 
Q 2441 2713 2670 2916 
Q 2900 3119 2900 3481 
Q 2900 3844 2670 4047 
Q 2441 4250 2034 4250 
Q 1625 4250 1398 4047 
Q 1172 3844 1172 3481 
z
" transform="scale(0.015625)"/>
     </defs>
     <use xlink:href="#DejaVuSans-6d"/>
     <use xlink:href="#DejaVuSans-65" transform="translate(97.412109 0)"/>
     <use xlink:href="#DejaVuSans-61" transform="translate(158.935547 0)"/>
     <use xlink:href="#DejaVuSans-6e" transform="translate(220.214844 0)"/>
     <use xlink:href="#DejaVuSans-3a" transform="translate(283.59375 0)"/>
     <use xlink:href="#DejaVuSans-20" transform="translate(317.285156 0)"/>
     <use xlink:href="#DejaVuSans-2d" transform="translate(349.072266 0)"/>
     <use xlink:href="#DejaVuSans-30" transform="translate(385.15625 0)"/>
     <use xlink:href="#DejaVuSans-2e" transform="translate(448.779297 0)"/>
     <use xlink:href="#DejaVuSans-31" transform="translate(480.566406 0)"/>
     <use xlink:href="#DejaVuSans-34" transform="translate(544.189453 0)"/>
     <use xlink:href="#DejaVuSans-38" transform="translate(607.8125 0)"/>
    </g>
    <!-- var: 0.835 -->
    <g style="fill: #ff8c00" transform="translate(86.7 153.80325) scale(0.16 -0.16)">
     <use xlink:href="#DejaVuSans-76"/>
     <use xlink:href="#DejaVuSans-61" transform="translate(59.179688 0)"/>
     <use xlink:href="#DejaVuSans-72" transform="translate(120.458984 0)"/>
     <use xlink:href="#DejaVuSans-3a" transform="translate(159.822266 0)"/>
     <use xlink:href="#DejaVuSans-20" transform="translate(193.513672 0)"/>
     <use xlink:href="#DejaVuSans-30" transform="translate(225.300781 0)"/>
     <use xlink:href="#DejaVuSans-2e" transform="translate(288.923828 0)"/>
     <use xlink:href="#DejaVuSans-38" transform="translate(320.710938 0)"/>
     <use xlink:href="#DejaVuSans-33" transform="translate(384.333984 0)"/>
     <use xlink:href="#DejaVuSans-35" transform="translate(447.957031 0)"/>
    </g>
   </g>
   <g id="legend_1">
    <g id="patch_125">
     <path d="M 378.103125 64.2675 
L 476.16 64.2675 
Q 478.56 64.2675 478.56 61.8675 
L 478.56 27.84 
Q 478.56 25.44 476.16 25.44 
L 378.103125 25.44 
Q 375.703125 25.44 375.703125 27.84 
L 375.703125 61.8675 
Q 375.703125 64.2675 378.103125 64.2675 
z
" style="fill: #ffffff; opacity: 0.8; stroke: #cccccc; stroke-width: 1.5; stroke-linejoin: miter"/>
    </g>
    <g id="patch_126">
     <path d="M 380.503125 39.358125 
L 404.503125 39.358125 
L 404.503125 30.958125 
L 380.503125 30.958125 
z
" style="fill: #4682b4; opacity: 0.5"/>
    </g>
    <g id="text_16">
     <!-- no reset -->
     <g transform="translate(414.103125 39.358125) scale(0.12 -0.12)">
      <use xlink:href="#DejaVuSans-6e"/>
      <use xlink:href="#DejaVuSans-6f" transform="translate(63.378906 0)"/>
      <use xlink:href="#DejaVuSans-20" transform="translate(124.560547 0)"/>
      <use xlink:href="#DejaVuSans-72" transform="translate(156.347656 0)"/>
      <use xlink:href="#DejaVuSans-65" transform="translate(195.210938 0)"/>
      <use xlink:href="#DejaVuSans-73" transform="translate(256.734375 0)"/>
      <use xlink:href="#DejaVuSans-65" transform="translate(308.833984 0)"/>
      <use xlink:href="#DejaVuSans-74" transform="translate(370.357422 0)"/>
     </g>
    </g>
    <g id="patch_127">
     <path d="M 380.503125 56.971875 
L 404.503125 56.971875 
L 404.503125 48.571875 
L 380.503125 48.571875 
z
" style="fill: #ff8c00; opacity: 0.5"/>
    </g>
    <g id="text_17">
     <!-- with reset -->
     <g transform="translate(414.103125 56.971875) scale(0.12 -0.12)">
      <defs>
       <path id="DejaVuSans-77" d="M 269 3500 
L 844 3500 
L 1563 769 
L 2278 3500 
L 2956 3500 
L 3675 769 
L 4391 3500 
L 4966 3500 
L 4050 0 
L 3372 0 
L 2619 2869 
L 1863 0 
L 1184 0 
L 269 3500 
z
" transform="scale(0.015625)"/>
       <path id="DejaVuSans-68" d="M 3513 2113 
L 3513 0 
L 2938 0 
L 2938 2094 
Q 2938 2591 2744 2837 
Q 2550 3084 2163 3084 
Q 1697 3084 1428 2787 
Q 1159 2491 1159 1978 
L 1159 0 
L 581 0 
L 581 4863 
L 1159 4863 
L 1159 2956 
Q 1366 3272 1645 3428 
Q 1925 3584 2291 3584 
Q 2894 3584 3203 3211 
Q 3513 2838 3513 2113 
z
" transform="scale(0.015625)"/>
      </defs>
      <use xlink:href="#DejaVuSans-77"/>
      <use xlink:href="#DejaVuSans-69" transform="translate(81.787109 0)"/>
      <use xlink:href="#DejaVuSans-74" transform="translate(109.570312 0)"/>
      <use xlink:href="#DejaVuSans-68" transform="translate(148.779297 0)"/>
      <use xlink:href="#DejaVuSans-20" transform="translate(212.158203 0)"/>
      <use xlink:href="#DejaVuSans-72" transform="translate(243.945312 0)"/>
      <use xlink:href="#DejaVuSans-65" transform="translate(282.808594 0)"/>
      <use xlink:href="#DejaVuSans-73" transform="translate(344.332031 0)"/>
      <use xlink:href="#DejaVuSans-65" transform="translate(396.431641 0)"/>
      <use xlink:href="#DejaVuSans-74" transform="translate(457.955078 0)"/>
     </g>
    </g>
   </g>
  </g>
 </g>
 <defs>
  <clipPath id="p1e7e707201">
   <rect x="79.5" y="19.44" width="405.06" height="270.78"/>
  </clipPath>
 </defs>
</svg>
